<svg id="svg" version="1.1" width="400" height="225" viewBox="0 0 400 225" xmlns="http://www.w3.org/2000/svg" xmlns:xlink="http://www.w3.org/1999/xlink" ><g id="svgg"><path id="path0" d="M93.109 72.819 C 93.038 73.005,92.825 73.157,92.635 73.157 C 92.027 73.157,92.128 85.375,92.741 85.988 C 92.988 86.235,93.253 86.438,93.330 86.438 C 93.406 86.438,93.798 86.716,94.201 87.057 C 94.603 87.397,95.298 87.980,95.745 88.351 L 96.558 89.026 96.562 120.589 C 96.567 151.560,96.575 152.155,97.003 152.384 C 97.673 152.742,168.420 152.706,168.779 152.347 C 168.986 152.139,169.049 144.802,169.049 120.690 L 169.049 89.304 170.450 87.984 C 171.220 87.257,172.031 86.663,172.251 86.663 C 172.471 86.663,172.651 86.508,172.651 86.318 C 172.651 86.129,172.802 85.915,172.988 85.844 C 173.592 85.612,173.483 73.237,172.876 73.044 C 172.628 72.966,172.425 72.807,172.425 72.692 C 172.425 72.293,93.263 72.420,93.109 72.819 M197.862 73.148 C 197.862 73.443,196.138 73.887,195.626 73.725 C 195.386 73.649,195.165 73.720,195.098 73.895 C 195.034 74.061,194.555 74.325,194.033 74.481 C 193.512 74.638,192.434 75.117,191.639 75.546 C 190.845 75.975,190.096 76.266,189.976 76.192 C 189.856 76.117,189.758 76.215,189.758 76.408 C 189.758 76.601,189.657 76.759,189.533 76.759 C 189.104 76.759,188.968 76.843,188.554 77.371 C 188.272 77.729,187.999 77.856,187.710 77.764 C 187.407 77.668,187.282 77.738,187.282 78.000 C 187.282 78.434,185.499 80.351,185.090 80.356 C 184.937 80.358,184.664 80.715,184.483 81.148 C 184.302 81.581,184.047 81.936,183.917 81.936 C 183.787 81.936,183.680 82.091,183.680 82.281 C 183.680 82.470,183.528 82.684,183.343 82.755 C 183.157 82.826,183.005 82.991,183.005 83.122 C 183.005 83.584,182.240 85.087,182.005 85.087 C 181.874 85.087,181.752 85.354,181.733 85.680 C 181.714 86.005,181.602 86.334,181.484 86.411 C 181.366 86.488,181.199 86.930,181.114 87.394 C 181.029 87.859,180.856 88.239,180.731 88.239 C 180.605 88.239,180.561 88.333,180.632 88.448 C 180.779 88.686,180.281 90.715,180.075 90.715 C 180.001 90.715,179.943 92.538,179.947 94.766 C 179.951 96.995,180.012 98.818,180.082 98.818 C 180.283 98.818,180.776 100.852,180.632 101.085 C 180.561 101.200,180.599 101.294,180.716 101.294 C 180.910 101.294,181.273 102.197,181.304 102.757 C 181.311 102.881,181.403 103.045,181.508 103.122 C 181.613 103.199,181.714 103.528,181.733 103.853 C 181.752 104.179,181.894 104.445,182.048 104.446 C 182.295 104.446,182.438 104.889,182.356 105.402 C 182.342 105.495,182.428 105.571,182.549 105.571 C 182.670 105.571,182.936 105.895,183.141 106.292 C 183.346 106.688,183.658 107.157,183.835 107.334 C 184.012 107.510,184.102 107.798,184.035 107.972 C 183.968 108.147,184.073 108.351,184.268 108.426 C 184.808 108.633,187.957 111.739,187.957 112.065 C 187.957 112.222,188.050 112.294,188.162 112.224 C 188.522 112.002,189.755 112.860,189.760 113.337 C 189.764 113.667,189.815 113.708,189.954 113.489 C 190.105 113.251,190.225 113.274,190.553 113.602 C 190.779 113.828,190.971 113.990,190.980 113.962 C 191.028 113.814,192.009 114.209,192.009 114.376 C 192.009 114.486,192.085 114.563,192.178 114.548 C 192.730 114.461,193.134 114.621,193.134 114.926 C 193.134 115.119,193.225 115.221,193.336 115.152 C 193.657 114.954,194.935 115.280,194.937 115.560 C 194.938 115.709,195.416 115.831,196.097 115.856 C 196.734 115.879,197.316 115.982,197.390 116.085 C 197.759 116.598,205.093 116.551,206.303 116.027 C 206.550 115.920,207.132 115.828,207.596 115.823 C 208.115 115.817,208.440 115.705,208.440 115.532 C 208.441 115.377,208.644 115.235,208.891 115.217 C 209.139 115.198,209.468 115.173,209.623 115.160 C 209.778 115.148,210.006 115.013,210.129 114.861 C 210.253 114.708,210.608 114.556,210.917 114.523 C 211.227 114.490,211.632 114.300,211.818 114.101 C 212.003 113.902,212.383 113.667,212.660 113.580 C 212.938 113.492,213.294 113.300,213.451 113.154 C 213.608 113.007,214.242 112.536,214.860 112.106 C 216.480 110.979,218.796 108.514,218.796 107.916 C 218.796 107.424,218.472 107.106,216.263 105.425 C 215.675 104.977,215.194 104.523,215.194 104.416 C 215.194 104.308,215.084 104.221,214.950 104.221 C 214.550 104.221,212.043 102.154,212.043 101.824 C 212.043 101.656,211.859 101.519,211.635 101.519 C 211.411 101.519,211.027 101.333,210.783 101.106 C 210.227 100.588,209.873 100.715,208.576 101.898 C 207.293 103.070,204.365 104.540,203.721 104.335 C 203.439 104.246,203.127 104.325,202.910 104.543 C 202.478 104.975,200.719 105.017,200.297 104.606 C 200.134 104.446,199.564 104.317,199.032 104.319 C 198.500 104.321,197.993 104.214,197.906 104.081 C 197.820 103.948,197.470 103.772,197.130 103.688 C 196.705 103.584,196.511 103.392,196.511 103.076 C 196.511 102.729,196.407 102.647,196.092 102.747 C 195.387 102.971,192.607 99.836,192.610 98.820 C 192.611 98.633,192.459 98.368,192.273 98.231 C 191.128 97.388,191.989 90.971,193.519 88.942 C 194.711 87.361,197.380 85.352,197.879 85.661 C 197.993 85.731,198.087 85.690,198.087 85.569 C 198.087 85.354,198.977 85.084,200.113 84.955 C 200.422 84.920,201.005 84.822,201.409 84.738 C 201.862 84.644,202.266 84.688,202.465 84.853 C 202.642 85.000,202.970 85.094,203.194 85.062 C 203.804 84.975,205.065 85.317,205.065 85.569 C 205.065 85.690,205.155 85.733,205.265 85.665 C 205.576 85.473,207.329 86.540,208.559 87.669 C 209.791 88.800,210.163 88.893,210.901 88.253 C 211.178 88.013,211.548 87.872,211.723 87.939 C 211.911 88.011,212.043 87.923,212.043 87.727 C 212.043 87.542,212.372 87.138,212.774 86.828 C 213.177 86.518,213.726 86.075,213.994 85.844 C 214.263 85.614,214.764 85.222,215.109 84.975 C 215.454 84.727,216.058 84.246,216.451 83.905 C 216.845 83.565,217.240 83.286,217.328 83.286 C 217.585 83.286,218.796 81.915,218.796 81.624 C 218.796 80.888,216.221 78.290,214.202 76.990 C 213.448 76.504,212.729 76.025,212.606 75.925 C 212.337 75.707,211.098 75.109,210.868 75.086 C 210.779 75.078,210.524 74.918,210.301 74.733 C 210.078 74.547,209.593 74.364,209.225 74.327 C 208.856 74.290,208.452 74.138,208.329 73.989 C 208.205 73.841,207.651 73.690,207.098 73.654 C 206.544 73.618,205.918 73.430,205.705 73.238 C 205.492 73.045,205.210 72.955,205.078 73.036 C 204.787 73.216,198.541 73.236,198.363 73.058 C 198.162 72.857,197.862 72.912,197.862 73.148 M220.402 74.031 L 219.914 74.454 219.994 87.480 C 220.050 96.618,220.158 100.977,220.356 102.082 C 220.511 102.949,220.635 103.836,220.631 104.053 C 220.628 104.270,220.769 104.726,220.947 105.066 C 221.124 105.406,221.270 105.814,221.270 105.973 C 221.271 106.132,221.437 106.515,221.640 106.824 C 221.842 107.133,221.952 107.442,221.884 107.510 C 221.815 107.579,221.957 107.832,222.199 108.074 C 222.441 108.316,222.586 108.600,222.521 108.705 C 222.455 108.811,222.553 109.022,222.737 109.175 C 222.922 109.328,223.073 109.542,223.073 109.651 C 223.073 109.759,223.275 110.051,223.523 110.298 C 223.770 110.546,223.973 110.900,223.973 111.086 C 223.973 111.272,224.085 111.424,224.223 111.424 C 224.581 111.424,225.540 112.380,225.545 112.742 C 225.547 112.911,225.690 112.993,225.865 112.926 C 226.039 112.859,226.359 113.000,226.575 113.240 C 226.792 113.479,227.105 113.675,227.272 113.675 C 227.438 113.675,227.575 113.776,227.575 113.900 C 227.575 114.024,227.727 114.125,227.912 114.125 C 228.098 114.125,228.250 114.232,228.250 114.363 C 228.250 114.494,228.347 114.541,228.467 114.468 C 228.586 114.394,228.865 114.515,229.086 114.736 C 229.307 114.957,229.615 115.148,229.769 115.160 C 229.924 115.173,230.253 115.198,230.501 115.217 C 230.748 115.235,230.951 115.377,230.951 115.532 C 230.951 115.716,231.351 115.825,232.107 115.848 C 232.742 115.868,233.324 115.974,233.401 116.085 C 233.734 116.570,241.985 116.556,243.106 116.070 C 243.292 115.989,243.849 115.898,244.344 115.868 C 244.840 115.838,245.355 115.673,245.489 115.501 C 245.624 115.330,246.054 115.178,246.445 115.164 C 246.837 115.150,247.157 115.072,247.158 114.991 C 247.159 114.733,249.644 113.429,249.869 113.568 C 249.987 113.641,250.084 113.597,250.084 113.469 C 250.084 113.341,250.515 112.796,251.041 112.259 C 252.516 110.751,253.799 109.251,253.799 109.032 C 253.799 108.583,254.720 106.933,254.973 106.928 C 255.124 106.924,255.196 106.787,255.133 106.623 C 255.070 106.459,255.143 106.028,255.296 105.666 C 255.450 105.304,255.587 104.907,255.603 104.783 C 255.693 104.050,256.004 102.506,256.091 102.359 C 256.148 102.264,256.212 95.814,256.234 88.026 L 256.275 73.866 255.627 73.737 C 253.551 73.321,245.152 73.605,244.684 74.107 C 244.224 74.601,244.219 74.760,244.232 88.232 C 244.239 95.726,244.242 102.085,244.238 102.364 C 244.235 102.656,244.092 102.870,243.901 102.870 C 243.700 102.870,243.621 103.002,243.700 103.208 C 243.772 103.393,243.712 103.545,243.567 103.545 C 243.423 103.545,243.372 103.653,243.453 103.786 C 243.535 103.918,243.414 104.076,243.185 104.138 C 242.956 104.200,242.617 104.573,242.431 104.967 C 242.226 105.402,241.939 105.671,241.699 105.652 C 241.483 105.635,241.306 105.695,241.306 105.785 C 241.306 106.078,240.238 106.445,239.753 106.318 C 239.481 106.247,239.280 106.301,239.280 106.445 C 239.280 106.760,237.334 106.784,237.141 106.472 C 237.065 106.348,236.752 106.246,236.445 106.246 C 234.972 106.246,233.616 105.157,232.606 103.162 L 231.964 101.893 231.964 87.919 C 231.964 74.144,231.958 73.943,231.514 73.798 C 230.292 73.401,220.902 73.597,220.402 74.031 M257.850 73.759 C 257.291 73.871,257.237 114.711,257.796 115.066 C 258.267 115.366,281.486 115.292,282.150 114.989 L 282.724 114.728 282.724 110.541 C 282.724 105.243,283.494 105.765,275.702 105.789 C 271.444 105.803,269.523 105.731,269.306 105.551 C 269.049 105.337,268.997 102.659,269.001 89.636 C 269.004 77.178,268.946 73.942,268.717 73.796 C 268.434 73.617,258.727 73.583,257.850 73.759 M275.528 74.043 C 275.161 74.729,275.220 82.944,275.594 83.254 C 275.785 83.413,277.592 83.524,280.603 83.563 L 285.312 83.624 285.425 99.381 L 285.537 115.138 290.715 115.201 C 293.562 115.236,296.119 115.209,296.397 115.141 L 296.902 115.018 296.960 99.321 L 297.017 83.624 301.857 83.500 C 304.519 83.432,306.718 83.356,306.744 83.331 C 306.770 83.307,306.821 81.167,306.857 78.576 L 306.922 73.866 306.275 73.736 C 304.221 73.326,275.760 73.610,275.528 74.043 M171.023 79.775 C 171.082 84.794,171.071 84.939,170.608 85.290 C 170.346 85.488,169.762 85.979,169.309 86.380 C 168.856 86.782,168.384 87.111,168.259 87.112 C 167.351 87.116,167.366 86.639,167.248 119.415 L 167.136 150.703 132.808 150.703 L 98.481 150.703 98.368 119.409 L 98.255 88.115 97.773 87.502 C 97.507 87.164,97.187 86.888,97.061 86.888 C 96.935 86.888,96.595 86.609,96.304 86.269 C 96.013 85.929,95.498 85.506,95.158 85.331 L 94.541 85.011 94.541 79.909 C 94.541 77.103,94.608 74.741,94.690 74.659 C 94.772 74.577,111.967 74.535,132.901 74.565 L 170.962 74.620 171.023 79.775 M191.971 121.322 C 191.930 121.442,191.100 121.693,190.126 121.879 C 189.152 122.065,188.219 122.329,188.053 122.467 C 187.888 122.605,187.646 122.652,187.517 122.572 C 187.388 122.492,187.282 122.512,187.282 122.617 C 187.282 122.903,186.085 123.534,185.763 123.418 C 185.595 123.358,185.481 123.506,185.481 123.785 C 185.481 124.111,185.337 124.254,185.012 124.254 C 184.733 124.254,184.584 124.368,184.645 124.536 C 184.745 124.813,184.147 126.055,183.913 126.056 C 183.716 126.056,183.593 127.393,183.601 129.432 C 183.610 131.556,183.720 132.583,183.937 132.583 C 184.017 132.583,184.151 132.862,184.236 133.202 C 184.321 133.542,184.545 133.992,184.733 134.201 C 184.921 134.410,185.009 134.688,184.927 134.820 C 184.846 134.951,184.912 135.060,185.074 135.061 C 185.236 135.063,185.721 135.427,186.153 135.871 C 186.584 136.314,187.217 136.822,187.560 137.000 C 187.902 137.177,188.182 137.417,188.182 137.534 C 188.182 137.651,188.326 137.691,188.503 137.623 C 188.679 137.556,189.013 137.685,189.245 137.912 C 189.478 138.139,190.064 138.348,190.557 138.379 C 191.046 138.410,191.480 138.537,191.521 138.660 C 191.563 138.784,191.736 138.886,191.908 138.886 C 192.428 138.886,193.812 140.418,193.657 140.822 C 193.581 141.020,193.660 141.272,193.833 141.381 C 194.024 141.502,194.045 141.581,193.887 141.583 C 193.744 141.585,193.676 141.777,193.737 142.008 C 193.892 142.600,192.863 143.559,191.874 143.744 C 190.899 143.927,187.274 143.661,186.938 143.382 C 186.483 143.005,185.658 143.246,185.402 143.832 C 185.265 144.145,185.090 144.451,185.013 144.513 C 184.937 144.575,184.884 145.436,184.896 146.427 C 184.908 147.417,184.849 148.537,184.764 148.914 L 184.610 149.601 190.164 149.616 C 194.715 149.627,195.760 149.572,195.952 149.310 C 196.080 149.134,196.562 148.970,197.023 148.946 C 197.483 148.922,197.860 148.792,197.861 148.657 C 197.862 148.360,198.944 147.836,199.213 148.003 C 199.318 148.068,199.470 147.917,199.549 147.668 C 199.628 147.418,199.787 147.214,199.903 147.214 C 200.018 147.214,200.113 147.067,200.113 146.888 C 200.113 146.708,200.239 146.480,200.394 146.381 C 200.549 146.282,200.685 146.075,200.698 145.920 C 200.765 145.083,200.812 144.963,201.076 144.963 C 201.296 144.963,201.365 144.245,201.365 141.925 C 201.365 139.604,201.296 138.886,201.076 138.886 C 200.918 138.886,200.788 138.781,200.788 138.653 C 200.788 138.464,200.348 137.284,200.066 136.719 C 199.909 136.404,197.806 134.411,197.511 134.297 C 197.332 134.229,197.186 134.062,197.186 133.927 C 197.186 133.792,197.088 133.743,196.968 133.817 C 196.847 133.891,196.518 133.804,196.236 133.622 C 195.954 133.440,195.335 133.221,194.861 133.134 C 194.387 133.047,193.946 132.838,193.881 132.668 C 193.816 132.499,193.674 132.415,193.566 132.482 C 193.152 132.738,190.995 131.148,191.233 130.763 C 191.292 130.667,191.238 130.525,191.112 130.447 C 190.986 130.369,190.884 130.064,190.884 129.769 C 190.884 129.474,190.986 129.169,191.112 129.092 C 191.238 129.014,191.286 128.861,191.219 128.752 C 191.151 128.643,191.383 128.342,191.733 128.083 C 192.684 127.380,198.987 127.397,198.987 128.102 C 198.987 128.611,199.463 128.235,199.584 127.631 C 199.658 127.259,199.817 126.956,199.937 126.956 C 200.066 126.956,200.100 126.519,200.020 125.886 C 199.946 125.298,199.976 124.209,200.086 123.467 C 200.329 121.819,200.455 121.945,198.363 121.745 C 197.411 121.654,196.597 121.472,196.553 121.341 C 196.451 121.037,192.076 121.018,191.971 121.322 M256.443 121.440 C 256.249 121.660,256.162 122.666,256.162 124.691 C 256.162 128.192,255.762 127.901,260.439 127.808 L 263.703 127.743 263.768 124.930 C 263.865 120.733,264.214 121.101,260.153 121.112 C 257.482 121.118,256.663 121.191,256.443 121.440 M205.627 127.687 L 205.627 130.445 203.602 130.557 L 201.576 130.670 201.576 133.708 L 201.576 136.747 203.602 136.860 L 205.627 136.972 205.687 142.881 L 205.747 148.790 209.454 148.790 L 213.161 148.790 213.221 142.881 L 213.281 136.972 215.257 136.907 L 217.233 136.842 217.170 133.756 L 217.107 130.670 215.125 130.604 L 213.143 130.539 213.212 127.734 L 213.281 124.929 209.454 124.929 L 205.627 124.929 205.627 127.687 M243.693 125.286 C 243.618 125.482,243.557 126.744,243.557 128.091 L 243.557 130.540 241.587 130.605 L 239.617 130.670 239.505 133.758 L 239.392 136.845 241.418 136.909 L 243.444 136.972 243.504 142.881 C 243.541 146.558,243.648 148.793,243.785 148.797 C 243.907 148.800,245.526 148.803,247.383 148.803 C 249.240 148.803,250.916 148.800,251.108 148.797 C 251.415 148.791,251.448 148.082,251.389 142.810 L 251.322 136.830 253.293 136.901 L 255.263 136.972 255.262 133.901 C 255.262 130.359,255.400 130.557,252.936 130.558 L 251.322 130.558 251.393 128.079 C 251.449 126.114,251.394 125.532,251.128 125.265 C 250.616 124.754,243.890 124.772,243.693 125.286 M225.631 130.266 C 225.524 130.427,225.056 130.583,224.592 130.614 C 224.128 130.645,223.749 130.737,223.748 130.819 C 223.748 131.027,221.734 132.133,221.356 132.133 C 221.186 132.133,221.047 132.335,221.047 132.583 C 221.047 132.833,220.897 133.033,220.709 133.033 C 220.523 133.033,220.371 133.142,220.371 133.274 C 220.371 133.407,220.245 133.657,220.090 133.829 C 219.415 134.582,219.238 134.834,219.384 134.834 C 219.470 134.834,219.384 135.011,219.193 135.228 C 219.002 135.445,218.776 135.951,218.690 136.353 C 218.605 136.756,218.416 137.085,218.271 137.085 C 217.857 137.085,217.909 142.297,218.327 142.624 C 218.502 142.762,218.646 143.188,218.646 143.571 C 218.646 143.955,218.781 144.321,218.946 144.384 C 219.111 144.447,219.246 144.694,219.246 144.932 C 219.246 145.171,219.398 145.424,219.584 145.495 C 219.769 145.566,219.921 145.719,219.921 145.834 C 219.921 146.037,221.446 147.665,221.636 147.665 C 221.688 147.665,222.126 147.914,222.608 148.218 C 223.091 148.523,223.747 148.838,224.067 148.918 C 224.387 148.998,224.648 149.180,224.648 149.321 C 224.648 149.507,226.524 149.598,231.394 149.648 L 238.139 149.717 238.265 149.197 C 238.335 148.911,238.364 144.626,238.329 139.674 L 238.267 130.670 234.037 130.557 C 231.611 130.493,229.740 130.349,229.648 130.219 C 229.401 129.872,225.867 129.913,225.631 130.266 M273.044 130.135 C 273.044 130.361,271.460 130.803,271.209 130.648 C 271.104 130.583,271.019 130.630,271.019 130.751 C 271.019 130.872,270.715 131.038,270.343 131.120 C 269.972 131.201,269.667 131.336,269.666 131.419 C 269.664 131.694,268.121 132.627,267.897 132.489 C 267.777 132.415,267.565 132.697,267.427 133.116 C 267.288 133.536,266.985 134.051,266.753 134.261 C 266.522 134.470,266.270 134.888,266.195 135.188 C 266.120 135.489,265.933 135.735,265.781 135.735 C 265.620 135.736,265.486 136.081,265.461 136.558 C 265.437 137.010,265.325 137.440,265.212 137.513 C 264.915 137.706,265.025 142.030,265.346 142.783 C 265.495 143.132,265.616 143.520,265.616 143.646 C 265.616 144.613,268.716 147.962,270.239 148.640 C 270.730 148.858,271.334 149.155,271.581 149.300 C 272.268 149.702,277.997 149.720,277.997 149.321 C 277.997 149.153,278.149 149.000,278.334 148.981 C 278.520 148.963,278.793 148.938,278.941 148.925 C 280.107 148.828,284.074 144.232,284.074 142.979 C 284.074 142.832,284.163 142.712,284.271 142.712 C 284.491 142.712,284.542 137.262,284.323 137.085 C 284.247 137.023,283.843 136.283,283.427 135.441 C 282.626 133.824,281.073 132.118,279.994 131.671 C 279.638 131.523,279.347 131.321,279.347 131.221 C 279.347 131.121,278.779 130.912,278.084 130.757 C 277.389 130.601,276.705 130.366,276.564 130.234 C 276.271 129.960,273.044 129.869,273.044 130.135 M285.537 139.392 L 285.537 148.790 289.642 148.790 L 293.746 148.790 293.806 142.793 C 293.863 137.062,293.886 136.785,294.316 136.547 C 294.564 136.409,294.821 136.225,294.887 136.137 C 295.255 135.648,296.428 136.582,296.104 137.105 C 296.035 137.218,296.136 137.310,296.329 137.310 C 296.637 137.310,296.680 137.998,296.680 143.013 C 296.680 146.149,296.722 148.757,296.773 148.809 C 296.824 148.860,298.388 148.872,300.249 148.835 L 303.632 148.768 303.701 142.532 C 303.739 139.103,303.694 136.263,303.602 136.222 C 303.509 136.181,303.433 135.908,303.433 135.616 C 303.433 135.324,303.326 135.020,303.196 134.939 C 303.065 134.859,302.998 134.676,303.045 134.534 C 303.092 134.392,302.992 134.136,302.821 133.965 C 302.650 133.794,302.452 133.363,302.381 133.006 C 302.309 132.650,302.156 132.358,302.041 132.358 C 301.925 132.358,301.375 132.010,300.818 131.585 C 300.261 131.160,299.501 130.745,299.128 130.664 C 298.755 130.582,298.400 130.384,298.339 130.225 C 298.251 129.997,296.873 129.941,291.883 129.965 L 285.537 129.994 285.537 139.392 M256.443 130.703 C 256.083 130.852,256.027 148.786,256.387 148.796 C 256.511 148.800,258.208 148.805,260.158 148.809 L 263.703 148.815 263.703 139.742 L 263.703 130.670 260.214 130.628 C 258.295 130.606,256.598 130.639,256.443 130.703 M229.083 137.383 C 229.182 137.547,229.455 137.752,229.689 137.839 C 229.923 137.925,230.058 138.053,229.989 138.122 C 229.920 138.191,230.057 138.442,230.295 138.679 C 230.938 139.322,230.808 141.362,230.124 141.362 C 229.945 141.362,229.867 141.471,229.949 141.605 C 230.095 141.840,229.270 142.577,228.813 142.622 C 228.689 142.634,228.410 142.720,228.194 142.815 C 227.977 142.909,227.622 142.909,227.406 142.815 C 227.189 142.720,226.911 142.634,226.787 142.622 C 224.804 142.430,224.352 138.601,226.181 137.493 C 226.932 137.038,228.831 136.966,229.083 137.383 M275.971 137.416 C 275.971 137.604,276.104 137.695,276.281 137.627 C 277.519 137.152,277.914 140.831,276.755 142.040 C 276.419 142.391,276.014 142.629,275.855 142.568 C 275.696 142.507,275.499 142.565,275.417 142.697 C 275.221 143.015,274.170 143.008,274.170 142.688 C 274.170 142.551,274.016 142.498,273.828 142.570 C 273.445 142.717,272.318 141.852,272.503 141.553 C 272.568 141.448,272.523 141.362,272.404 141.362 C 272.285 141.362,272.084 141.063,271.956 140.697 C 271.648 139.812,272.013 138.436,272.556 138.436 C 272.771 138.436,273.127 138.132,273.346 137.760 C 273.802 136.988,275.971 136.703,275.971 137.416 " stroke="none" fill="#fbfbfb" fill-rule="evenodd"></path><path id="path1" d="M201.171 72.730 C 201.349 72.908,201.538 72.910,201.835 72.737 C 202.200 72.525,202.169 72.495,201.587 72.489 C 201.103 72.484,200.990 72.549,201.171 72.730 M198.312 72.932 C 198.312 73.056,198.464 73.157,198.649 73.157 C 198.835 73.157,198.987 73.056,198.987 72.932 C 198.987 72.808,198.835 72.707,198.649 72.707 C 198.464 72.707,198.312 72.808,198.312 72.932 M204.389 72.932 C 204.389 73.056,204.541 73.157,204.727 73.157 C 204.913 73.157,205.065 73.056,205.065 72.932 C 205.065 72.808,204.913 72.707,204.727 72.707 C 204.541 72.707,204.389 72.808,204.389 72.932 M196.511 73.157 C 196.511 73.281,196.663 73.382,196.849 73.382 C 197.034 73.382,197.186 73.281,197.186 73.157 C 197.186 73.033,197.034 72.932,196.849 72.932 C 196.663 72.932,196.511 73.033,196.511 73.157 M206.190 73.157 C 206.190 73.281,206.393 73.382,206.640 73.382 C 206.888 73.382,207.091 73.281,207.091 73.157 C 207.091 73.033,206.888 72.932,206.640 72.932 C 206.393 72.932,206.190 73.033,206.190 73.157 M220.822 73.157 C 220.822 73.281,220.974 73.382,221.159 73.382 C 221.345 73.382,221.497 73.281,221.497 73.157 C 221.497 73.033,221.345 72.932,221.159 72.932 C 220.974 72.932,220.822 73.033,220.822 73.157 M230.726 73.157 C 230.726 73.281,230.878 73.382,231.064 73.382 C 231.249 73.382,231.401 73.281,231.401 73.157 C 231.401 73.033,231.249 72.932,231.064 72.932 C 230.878 72.932,230.726 73.033,230.726 73.157 M245.132 73.157 C 245.132 73.281,245.284 73.382,245.470 73.382 C 245.656 73.382,245.808 73.281,245.808 73.157 C 245.808 73.033,245.656 72.932,245.470 72.932 C 245.284 72.932,245.132 73.033,245.132 73.157 M257.963 73.157 C 257.963 73.281,258.115 73.382,258.301 73.382 C 258.486 73.382,258.638 73.281,258.638 73.157 C 258.638 73.033,258.486 72.932,258.301 72.932 C 258.115 72.932,257.963 73.033,257.963 73.157 M275.746 73.157 C 275.746 73.281,275.948 73.382,276.196 73.382 C 276.443 73.382,276.646 73.281,276.646 73.157 C 276.646 73.033,276.443 72.932,276.196 72.932 C 275.948 72.932,275.746 73.033,275.746 73.157 M274.995 73.532 C 274.658 73.869,274.830 74.350,275.183 74.057 C 275.369 73.903,275.521 73.688,275.521 73.580 C 275.521 73.347,275.209 73.318,274.995 73.532 M194.260 73.832 C 194.260 73.956,194.412 74.057,194.598 74.057 C 194.783 74.057,194.935 73.956,194.935 73.832 C 194.935 73.708,194.783 73.607,194.598 73.607 C 194.412 73.607,194.260 73.708,194.260 73.832 M256.493 87.563 C 256.493 95.053,256.521 98.118,256.556 94.373 C 256.591 90.627,256.591 84.499,256.556 80.754 C 256.521 77.009,256.493 80.073,256.493 87.563 M94.766 79.797 C 94.766 83.024,94.848 84.862,94.992 84.862 C 95.135 84.862,95.217 83.099,95.217 80.023 L 95.217 75.183 132.808 75.183 L 170.400 75.183 170.400 80.023 C 170.400 83.099,170.482 84.862,170.625 84.862 C 170.768 84.862,170.850 83.024,170.850 79.797 L 170.850 74.733 132.808 74.733 L 94.766 74.733 94.766 79.797 M191.115 75.174 C 190.933 75.289,190.852 75.452,190.936 75.535 C 191.019 75.618,191.251 75.523,191.452 75.322 C 191.848 74.926,191.647 74.838,191.115 75.174 M188.182 76.984 C 188.004 77.094,187.932 77.259,188.024 77.350 C 188.115 77.442,188.308 77.398,188.452 77.254 C 188.793 76.914,188.603 76.724,188.182 76.984 M214.786 76.998 C 214.840 77.160,215.018 77.338,215.180 77.392 C 215.349 77.448,215.433 77.364,215.377 77.195 C 215.323 77.032,215.146 76.855,214.983 76.801 C 214.814 76.745,214.730 76.829,214.786 76.998 M216.545 78.460 C 216.545 78.651,217.970 79.910,218.187 79.910 C 218.292 79.910,218.244 79.769,218.080 79.597 C 217.917 79.426,217.607 79.071,217.391 78.810 C 217.028 78.369,216.545 78.169,216.545 78.460 M218.120 82.836 C 217.942 82.947,217.871 83.112,217.962 83.203 C 218.053 83.294,218.246 83.251,218.391 83.106 C 218.731 82.766,218.541 82.576,218.120 82.836 M274.845 83.406 C 274.845 83.765,275.443 84.114,275.670 83.888 C 275.800 83.757,275.214 83.061,274.974 83.061 C 274.903 83.061,274.845 83.216,274.845 83.406 M306.359 83.737 C 306.359 83.860,306.511 83.962,306.697 83.962 C 306.882 83.962,307.034 83.860,307.034 83.737 C 307.034 83.613,306.882 83.512,306.697 83.512 C 306.511 83.512,306.359 83.613,306.359 83.737 M216.644 84.056 C 216.404 84.231,216.275 84.442,216.358 84.525 C 216.440 84.607,216.718 84.464,216.976 84.206 C 217.510 83.672,217.300 83.577,216.644 84.056 M181.936 84.124 C 181.616 84.238,181.548 84.862,181.855 84.862 C 182.045 84.862,182.411 84.179,182.279 84.073 C 182.245 84.046,182.091 84.069,181.936 84.124 M214.847 85.327 C 214.766 85.459,214.753 85.621,214.819 85.687 C 214.980 85.849,215.419 85.565,215.419 85.299 C 215.419 85.011,215.031 85.031,214.847 85.327 M96.169 85.805 C 96.281 86.141,96.792 86.326,96.792 86.030 C 96.792 85.910,96.632 85.749,96.436 85.674 C 96.217 85.590,96.114 85.640,96.169 85.805 M169.055 85.754 C 168.873 85.869,168.783 86.022,168.854 86.093 C 169.032 86.271,169.724 85.988,169.724 85.738 C 169.724 85.482,169.476 85.488,169.055 85.754 M197.411 86.001 C 197.411 86.132,197.310 86.177,197.186 86.100 C 197.062 86.024,196.961 86.068,196.961 86.199 C 196.961 86.476,197.022 86.487,197.506 86.301 C 197.898 86.150,197.993 85.763,197.636 85.763 C 197.513 85.763,197.411 85.870,197.411 86.001 M196.211 86.588 C 195.996 86.803,196.026 87.113,196.262 87.113 C 196.372 87.113,196.521 86.961,196.592 86.775 C 196.724 86.432,196.484 86.314,196.211 86.588 M97.829 87.282 C 98.046 87.499,98.357 87.810,98.521 87.973 C 98.697 88.150,98.818 88.173,98.818 88.030 C 98.818 87.897,98.616 87.586,98.368 87.338 C 98.120 87.091,97.809 86.888,97.677 86.888 C 97.544 86.888,97.613 87.065,97.829 87.282 M93.777 87.432 C 93.853 87.628,94.013 87.788,94.134 87.788 C 94.430 87.788,94.245 87.277,93.908 87.165 C 93.744 87.110,93.693 87.213,93.777 87.432 M167.162 87.456 C 166.962 87.657,166.798 87.979,166.798 88.172 C 166.798 88.412,166.950 88.331,167.274 87.919 C 167.808 87.240,167.725 86.894,167.162 87.456 M171.225 87.488 C 170.951 87.762,171.069 88.001,171.412 87.870 C 171.598 87.799,171.750 87.650,171.750 87.539 C 171.750 87.303,171.440 87.273,171.225 87.488 M194.749 87.860 C 194.052 88.601,194.143 88.816,194.868 88.143 C 195.203 87.833,195.423 87.525,195.357 87.460 C 195.291 87.394,195.017 87.574,194.749 87.860 M207.766 87.510 C 207.766 87.750,208.249 88.239,208.486 88.239 C 208.836 88.239,208.661 87.801,208.216 87.563 C 207.968 87.431,207.766 87.407,207.766 87.510 M210.917 88.464 C 210.739 88.574,210.667 88.739,210.759 88.830 C 210.850 88.922,211.043 88.878,211.187 88.734 C 211.527 88.394,211.338 88.204,210.917 88.464 M166.907 119.640 C 166.907 136.601,166.934 143.506,166.967 134.985 C 166.999 126.464,166.999 112.587,166.967 104.147 C 166.934 95.707,166.907 102.679,166.907 119.640 M209.567 89.139 C 209.567 89.263,209.769 89.364,210.017 89.364 C 210.264 89.364,210.467 89.263,210.467 89.139 C 210.467 89.015,210.264 88.914,210.017 88.914 C 209.769 88.914,209.567 89.015,209.567 89.139 M179.854 89.702 C 179.854 89.887,179.955 90.039,180.079 90.039 C 180.203 90.039,180.304 89.887,180.304 89.702 C 180.304 89.516,180.203 89.364,180.079 89.364 C 179.955 89.364,179.854 89.516,179.854 89.702 M192.234 91.728 C 192.234 91.913,192.335 92.065,192.459 92.065 C 192.583 92.065,192.684 91.913,192.684 91.728 C 192.684 91.542,192.583 91.390,192.459 91.390 C 192.335 91.390,192.234 91.542,192.234 91.728 M179.178 94.654 C 179.178 95.629,179.273 96.342,179.403 96.342 C 179.534 96.342,179.629 95.629,179.629 94.654 C 179.629 93.678,179.534 92.966,179.403 92.966 C 179.273 92.966,179.178 93.678,179.178 94.654 M192.234 97.805 C 192.234 97.991,192.335 98.143,192.459 98.143 C 192.583 98.143,192.684 97.991,192.684 97.805 C 192.684 97.620,192.583 97.468,192.459 97.468 C 192.335 97.468,192.234 97.620,192.234 97.805 M192.909 99.268 C 192.909 99.392,193.017 99.494,193.148 99.494 C 193.279 99.494,193.331 99.583,193.263 99.693 C 193.195 99.803,193.290 100.018,193.475 100.171 C 193.878 100.506,193.895 100.377,193.549 99.617 C 193.289 99.046,192.909 98.839,192.909 99.268 M179.854 99.831 C 179.854 100.017,179.955 100.169,180.079 100.169 C 180.203 100.169,180.304 100.017,180.304 99.831 C 180.304 99.645,180.203 99.494,180.079 99.494 C 179.955 99.494,179.854 99.645,179.854 99.831 M209.567 100.394 C 209.567 100.518,209.769 100.619,210.017 100.619 C 210.264 100.619,210.467 100.518,210.467 100.394 C 210.467 100.270,210.264 100.169,210.017 100.169 C 209.769 100.169,209.567 100.270,209.567 100.394 M194.598 101.519 C 195.521 102.465,196.111 102.761,195.440 101.942 C 194.795 101.156,194.189 100.619,193.947 100.619 C 193.821 100.619,194.114 101.024,194.598 101.519 M232.302 101.632 C 232.302 101.941,232.403 102.195,232.527 102.195 C 232.651 102.195,232.752 101.941,232.752 101.632 C 232.752 101.322,232.651 101.069,232.527 101.069 C 232.403 101.069,232.302 101.322,232.302 101.632 M207.548 102.134 C 207.253 102.466,207.261 102.489,207.623 102.350 C 207.846 102.265,208.070 102.195,208.122 102.195 C 208.174 102.195,208.216 102.093,208.216 101.970 C 208.216 101.638,207.924 101.710,207.548 102.134 M219.921 102.546 C 219.921 102.986,220.006 103.295,220.109 103.231 C 220.286 103.121,220.193 101.745,220.008 101.745 C 219.960 101.745,219.921 102.105,219.921 102.546 M213.393 102.846 C 213.393 102.956,213.554 103.108,213.749 103.184 C 214.300 103.395,214.355 103.349,213.988 102.983 C 213.606 102.600,213.393 102.551,213.393 102.846 M256.097 103.320 C 256.032 103.567,256.071 103.827,256.183 103.896 C 256.295 103.965,256.387 103.763,256.387 103.446 C 256.387 102.756,256.259 102.701,256.097 103.320 M201.238 104.446 C 201.238 104.569,201.441 104.671,201.688 104.671 C 201.936 104.671,202.138 104.569,202.138 104.446 C 202.138 104.322,201.936 104.221,201.688 104.221 C 201.441 104.221,201.238 104.322,201.238 104.446 M216.320 105.113 C 216.320 105.313,217.024 105.796,217.316 105.796 C 217.384 105.796,217.267 105.594,217.055 105.346 C 216.642 104.863,216.320 104.761,216.320 105.113 M241.681 105.046 C 241.407 105.319,241.525 105.559,241.868 105.427 C 242.054 105.356,242.206 105.207,242.206 105.097 C 242.206 104.861,241.896 104.831,241.681 105.046 M281.823 105.322 C 281.823 105.433,281.984 105.585,282.179 105.660 C 282.730 105.871,282.785 105.825,282.418 105.459 C 282.036 105.076,281.823 105.027,281.823 105.322 M182.330 105.925 C 182.330 105.996,182.482 106.205,182.667 106.391 C 183.034 106.758,183.080 106.703,182.868 106.152 C 182.740 105.818,182.330 105.644,182.330 105.925 M218.032 106.565 C 218.107 106.761,218.267 106.922,218.388 106.922 C 218.684 106.922,218.499 106.410,218.162 106.298 C 217.998 106.243,217.948 106.346,218.032 106.565 M217.372 110.104 C 216.775 110.729,216.345 111.300,216.418 111.372 C 216.542 111.496,218.796 109.305,218.796 109.061 C 218.796 108.751,218.358 109.072,217.372 110.104 M252.827 110.572 C 252.512 110.887,252.479 111.199,252.762 111.199 C 252.968 111.199,253.307 110.520,253.170 110.382 C 253.128 110.340,252.973 110.426,252.827 110.572 M187.099 111.663 C 187.153 111.825,187.330 112.003,187.493 112.057 C 187.662 112.113,187.746 112.029,187.690 111.860 C 187.636 111.697,187.458 111.520,187.296 111.466 C 187.127 111.410,187.043 111.494,187.099 111.663 M192.459 115.025 C 192.459 115.149,192.611 115.250,192.797 115.250 C 192.983 115.250,193.134 115.149,193.134 115.025 C 193.134 114.902,192.983 114.800,192.797 114.800 C 192.611 114.800,192.459 114.902,192.459 115.025 M246.201 115.406 C 245.985 115.462,245.808 115.602,245.808 115.717 C 245.808 116.035,246.250 115.966,246.628 115.588 C 246.970 115.246,246.910 115.220,246.201 115.406 M208.891 115.701 C 208.891 115.824,209.043 115.926,209.229 115.926 C 209.415 115.926,209.567 115.824,209.567 115.701 C 209.567 115.577,209.415 115.476,209.229 115.476 C 209.043 115.476,208.891 115.577,208.891 115.701 M257.738 115.701 C 257.738 115.848,261.940 115.926,269.893 115.926 C 277.847 115.926,282.048 115.848,282.048 115.701 C 282.048 115.553,277.847 115.476,269.893 115.476 C 261.940 115.476,257.738 115.553,257.738 115.701 M285.425 115.701 C 285.425 115.845,287.451 115.926,291.052 115.926 C 294.654 115.926,296.680 115.845,296.680 115.701 C 296.680 115.557,294.654 115.476,291.052 115.476 C 287.451 115.476,285.425 115.557,285.425 115.701 M204.840 116.601 C 204.840 116.725,204.992 116.826,205.177 116.826 C 205.363 116.826,205.515 116.725,205.515 116.601 C 205.515 116.477,205.363 116.376,205.177 116.376 C 204.992 116.376,204.840 116.477,204.840 116.601 M241.756 116.601 C 241.756 116.725,241.908 116.826,242.093 116.826 C 242.279 116.826,242.431 116.725,242.431 116.601 C 242.431 116.477,242.279 116.376,242.093 116.376 C 241.908 116.376,241.756 116.477,241.756 116.601 M199.887 116.826 C 199.887 116.957,200.638 117.051,201.688 117.051 C 202.739 117.051,203.489 116.957,203.489 116.826 C 203.489 116.695,202.739 116.601,201.688 116.601 C 200.638 116.601,199.887 116.695,199.887 116.826 M236.128 116.826 C 236.128 116.960,236.958 117.051,238.167 117.051 C 239.470 117.051,240.156 116.970,240.068 116.826 C 239.991 116.702,239.073 116.601,238.028 116.601 C 236.912 116.601,236.128 116.694,236.128 116.826 M189.758 121.328 C 189.758 121.452,190.062 121.553,190.433 121.553 C 190.805 121.553,191.109 121.452,191.109 121.328 C 191.109 121.204,190.805 121.103,190.433 121.103 C 190.062 121.103,189.758 121.204,189.758 121.328 M197.974 121.328 C 198.051 121.452,198.563 121.553,199.113 121.553 C 199.663 121.553,200.113 121.452,200.113 121.328 C 200.113 121.204,199.600 121.103,198.974 121.103 C 198.272 121.103,197.888 121.189,197.974 121.328 M263.904 121.459 C 263.979 121.655,264.041 123.124,264.041 124.723 C 264.041 126.511,264.127 127.631,264.266 127.631 C 264.510 127.631,264.590 122.074,264.354 121.459 C 264.279 121.263,264.116 121.103,263.992 121.103 C 263.869 121.103,263.829 121.263,263.904 121.459 M200.338 122.566 C 200.338 122.999,200.439 123.354,200.563 123.354 C 200.687 123.354,200.788 122.999,200.788 122.566 C 200.788 122.133,200.687 121.778,200.563 121.778 C 200.439 121.778,200.338 122.133,200.338 122.566 M200.263 124.855 C 200.029 125.088,200.086 125.830,200.338 125.830 C 200.461 125.830,200.563 125.577,200.563 125.267 C 200.563 124.678,200.511 124.606,200.263 124.855 M242.881 127.743 C 242.881 129.319,242.969 130.332,243.106 130.332 C 243.243 130.332,243.331 129.319,243.331 127.743 C 243.331 126.168,243.243 125.155,243.106 125.155 C 242.969 125.155,242.881 126.168,242.881 127.743 M183.021 127.800 C 183.035 128.348,183.059 128.367,183.230 127.968 C 183.494 127.354,183.494 127.181,183.230 127.181 C 183.106 127.181,183.012 127.459,183.021 127.800 M195.836 127.856 C 195.836 127.980,195.988 128.081,196.173 128.081 C 196.359 128.081,196.511 127.980,196.511 127.856 C 196.511 127.732,196.359 127.631,196.173 127.631 C 195.988 127.631,195.836 127.732,195.836 127.856 M197.411 128.081 C 197.411 128.205,197.690 128.305,198.030 128.303 C 198.513 128.300,198.575 128.251,198.312 128.081 C 197.871 127.796,197.411 127.796,197.411 128.081 M191.813 128.284 C 191.643 128.391,191.550 128.617,191.606 128.786 C 191.677 129.000,191.791 128.939,191.979 128.587 C 192.279 128.028,192.263 127.999,191.813 128.284 M258.255 128.249 C 259.345 128.290,261.067 128.290,262.082 128.248 C 263.097 128.207,262.206 128.173,260.101 128.173 C 257.997 128.173,257.166 128.207,258.255 128.249 M292.403 129.432 C 292.403 129.555,292.802 129.657,293.290 129.657 C 293.778 129.657,294.240 129.555,294.316 129.432 C 294.401 129.294,294.056 129.207,293.429 129.207 C 292.865 129.207,292.403 129.308,292.403 129.432 M295.104 129.432 C 295.104 129.555,295.560 129.657,296.117 129.657 C 296.674 129.657,297.130 129.555,297.130 129.432 C 297.130 129.308,296.674 129.207,296.117 129.207 C 295.560 129.207,295.104 129.308,295.104 129.432 M226.693 129.749 C 226.867 129.920,228.680 129.977,228.841 129.816 C 228.928 129.729,228.460 129.657,227.800 129.657 C 227.139 129.657,226.641 129.698,226.693 129.749 M274.057 129.882 C 274.134 130.006,274.488 130.107,274.845 130.107 C 275.202 130.107,275.557 130.006,275.633 129.882 C 275.717 129.746,275.406 129.657,274.845 129.657 C 274.285 129.657,273.973 129.746,274.057 129.882 M285.988 129.882 C 286.068 130.011,287.261 130.107,288.801 130.107 C 290.342 130.107,291.535 130.011,291.615 129.882 C 291.705 129.736,290.713 129.657,288.801 129.657 C 286.890 129.657,285.898 129.736,285.988 129.882 M224.648 130.107 C 224.648 130.231,224.800 130.332,224.986 130.332 C 225.172 130.332,225.324 130.231,225.324 130.107 C 225.324 129.983,225.172 129.882,224.986 129.882 C 224.800 129.882,224.648 129.983,224.648 130.107 M230.051 130.107 C 230.051 130.249,231.589 130.332,234.215 130.332 C 236.841 130.332,238.379 130.249,238.379 130.107 C 238.379 129.965,236.841 129.882,234.215 129.882 C 231.589 129.882,230.051 129.965,230.051 130.107 M256.837 130.107 C 256.837 130.247,258.113 130.332,260.214 130.332 C 262.315 130.332,263.590 130.247,263.590 130.107 C 263.590 129.967,262.315 129.882,260.214 129.882 C 258.113 129.882,256.837 129.967,256.837 130.107 M271.694 130.107 C 271.694 130.231,271.846 130.332,272.032 130.332 C 272.217 130.332,272.369 130.231,272.369 130.107 C 272.369 129.983,272.217 129.882,272.032 129.882 C 271.846 129.882,271.694 129.983,271.694 130.107 M183.005 130.908 C 183.005 131.225,183.097 131.427,183.209 131.358 C 183.321 131.289,183.360 131.029,183.295 130.782 C 183.133 130.163,183.005 130.218,183.005 130.908 M263.928 139.786 C 263.928 145.989,264.005 149.215,264.153 149.166 C 264.287 149.121,264.403 147.643,264.440 145.517 C 264.484 143.018,264.585 141.885,264.778 141.748 C 264.994 141.595,264.993 141.528,264.772 141.438 C 264.431 141.300,264.377 138.661,264.716 138.661 C 264.840 138.661,264.941 138.509,264.941 138.323 C 264.941 138.137,264.842 137.985,264.721 137.985 C 264.590 137.985,264.477 136.481,264.440 134.234 C 264.403 131.988,264.288 130.452,264.153 130.407 C 264.005 130.358,263.928 133.584,263.928 139.786 M222.854 130.773 C 222.672 130.889,222.581 131.041,222.653 131.113 C 222.830 131.290,223.523 131.008,223.523 130.758 C 223.523 130.502,223.275 130.507,222.854 130.773 M238.604 139.768 C 238.604 144.834,238.543 149.139,238.468 149.334 C 238.393 149.530,238.443 149.690,238.580 149.690 C 238.757 149.690,238.829 147.815,238.829 143.275 C 238.829 139.148,238.910 136.860,239.055 136.860 C 239.194 136.860,239.280 135.659,239.280 133.708 C 239.280 131.057,239.226 130.557,238.942 130.557 C 238.647 130.557,238.604 131.731,238.604 139.768 M255.442 133.821 C 255.405 135.617,255.450 137.086,255.543 137.085 C 255.636 137.085,255.712 135.616,255.712 133.821 C 255.712 129.599,255.530 129.599,255.442 133.821 M285.200 134.596 C 285.200 137.156,285.116 138.661,284.975 138.661 C 284.851 138.661,284.750 139.218,284.750 139.899 C 284.750 140.580,284.851 141.137,284.975 141.137 C 285.116 141.137,285.200 142.525,285.200 144.851 C 285.200 147.177,285.284 148.565,285.425 148.565 C 285.571 148.565,285.650 145.456,285.650 139.687 C 285.650 134.011,285.569 130.759,285.425 130.670 C 285.278 130.579,285.200 131.943,285.200 134.596 M191.699 130.943 C 191.492 131.149,192.662 132.135,193.090 132.115 C 193.401 132.101,193.409 132.073,193.134 131.968 C 192.949 131.897,192.580 131.608,192.314 131.325 C 192.048 131.042,191.772 130.870,191.699 130.943 M301.294 131.683 C 301.518 131.930,301.786 132.133,301.890 132.133 C 301.993 132.133,301.904 131.930,301.692 131.683 C 301.480 131.435,301.212 131.232,301.097 131.232 C 300.981 131.232,301.070 131.435,301.294 131.683 M194.260 132.583 C 194.260 132.707,194.463 132.808,194.710 132.808 C 194.958 132.808,195.160 132.707,195.160 132.583 C 195.160 132.459,194.958 132.358,194.710 132.358 C 194.463 132.358,194.260 132.459,194.260 132.583 M281.598 132.533 C 281.598 132.778,282.517 133.540,282.651 133.406 C 282.712 133.345,282.550 133.085,282.292 132.827 C 281.796 132.330,281.598 132.247,281.598 132.533 M198.312 134.452 C 198.312 134.650,199.914 136.233,200.013 136.134 C 200.078 136.069,199.774 135.649,199.338 135.200 C 198.633 134.474,198.312 134.240,198.312 134.452 M265.672 134.771 C 265.353 134.885,265.285 135.509,265.592 135.509 C 265.782 135.509,266.148 134.826,266.015 134.720 C 265.982 134.693,265.827 134.716,265.672 134.771 M184.806 135.168 C 184.806 135.390,186.404 136.912,186.518 136.798 C 186.583 136.733,186.272 136.315,185.826 135.869 C 185.054 135.097,184.806 134.926,184.806 135.168 M217.895 136.522 C 217.895 136.708,217.997 136.860,218.120 136.860 C 218.244 136.860,218.346 136.708,218.346 136.522 C 218.346 136.337,218.244 136.185,218.120 136.185 C 217.997 136.185,217.895 136.337,217.895 136.522 M187.193 137.404 C 187.269 137.600,187.429 137.760,187.550 137.760 C 187.846 137.760,187.660 137.249,187.324 137.137 C 187.159 137.082,187.109 137.185,187.193 137.404 M303.981 143.050 C 303.981 146.393,304.013 147.792,304.051 146.159 C 304.090 144.526,304.090 141.791,304.051 140.081 C 304.013 138.371,303.982 139.707,303.981 143.050 M226.674 137.535 C 226.674 137.659,226.826 137.760,227.012 137.760 C 227.198 137.760,227.349 137.659,227.349 137.535 C 227.349 137.411,227.198 137.310,227.012 137.310 C 226.826 137.310,226.674 137.411,226.674 137.535 M228.250 137.535 C 228.250 137.659,228.402 137.760,228.588 137.760 C 228.773 137.760,228.925 137.659,228.925 137.535 C 228.925 137.411,228.773 137.310,228.588 137.310 C 228.402 137.310,228.250 137.411,228.250 137.535 M242.881 143.139 C 242.881 147.594,242.948 148.993,243.163 149.075 C 243.384 149.160,243.431 147.924,243.381 143.247 C 243.342 139.613,243.233 137.310,243.099 137.310 C 242.964 137.310,242.881 139.531,242.881 143.139 M273.720 137.535 C 273.720 137.659,273.922 137.760,274.170 137.760 C 274.418 137.760,274.620 137.659,274.620 137.535 C 274.620 137.411,274.418 137.310,274.170 137.310 C 273.922 137.310,273.720 137.411,273.720 137.535 M275.070 137.535 C 275.070 137.659,275.222 137.760,275.408 137.760 C 275.594 137.760,275.746 137.659,275.746 137.535 C 275.746 137.411,275.594 137.310,275.408 137.310 C 275.222 137.310,275.070 137.411,275.070 137.535 M188.633 138.210 C 188.633 138.334,188.784 138.436,188.970 138.436 C 189.156 138.436,189.308 138.334,189.308 138.210 C 189.308 138.087,189.156 137.985,188.970 137.985 C 188.784 137.985,188.633 138.087,188.633 138.210 M201.013 138.323 C 201.013 138.509,201.114 138.661,201.238 138.661 C 201.362 138.661,201.463 138.509,201.463 138.323 C 201.463 138.137,201.362 137.985,201.238 137.985 C 201.114 137.985,201.013 138.137,201.013 138.323 M225.605 138.336 C 225.273 138.696,225.246 138.886,225.525 138.886 C 225.717 138.886,226.076 138.208,225.948 138.088 C 225.914 138.057,225.760 138.168,225.605 138.336 M276.424 138.138 C 276.431 138.483,276.846 138.986,276.998 138.834 C 277.082 138.750,276.986 138.518,276.785 138.318 C 276.585 138.117,276.422 138.036,276.424 138.138 M217.445 139.874 C 217.445 140.460,217.536 140.882,217.648 140.813 C 217.858 140.683,217.797 139.163,217.572 138.938 C 217.502 138.868,217.445 139.289,217.445 139.874 M271.919 139.899 C 271.919 140.084,272.020 140.236,272.144 140.236 C 272.268 140.236,272.369 140.084,272.369 139.899 C 272.369 139.713,272.268 139.561,272.144 139.561 C 272.020 139.561,271.919 139.713,271.919 139.899 M201.688 141.925 C 201.688 142.750,201.786 143.388,201.913 143.388 C 202.040 143.388,202.138 142.750,202.138 141.925 C 202.138 141.099,202.040 140.461,201.913 140.461 C 201.786 140.461,201.688 141.099,201.688 141.925 M192.834 142.637 C 192.619 142.853,192.649 143.163,192.885 143.163 C 192.996 143.163,193.145 143.011,193.216 142.825 C 193.348 142.482,193.108 142.364,192.834 142.637 M185.038 143.101 C 184.743 143.434,184.751 143.457,185.113 143.318 C 185.336 143.233,185.560 143.163,185.612 143.163 C 185.664 143.163,185.706 143.061,185.706 142.938 C 185.706 142.606,185.414 142.678,185.038 143.101 M217.895 143.275 C 217.895 143.461,217.997 143.613,218.120 143.613 C 218.244 143.613,218.346 143.461,218.346 143.275 C 218.346 143.089,218.244 142.938,218.120 142.938 C 217.997 142.938,217.895 143.089,217.895 143.275 M187.788 143.318 C 188.005 143.374,188.360 143.374,188.576 143.318 C 188.793 143.261,188.616 143.215,188.182 143.215 C 187.749 143.215,187.572 143.261,187.788 143.318 M265.391 144.626 C 265.391 144.811,265.492 144.963,265.616 144.963 C 265.740 144.963,265.841 144.811,265.841 144.626 C 265.841 144.440,265.740 144.288,265.616 144.288 C 265.492 144.288,265.391 144.440,265.391 144.626 M201.013 145.526 C 201.013 145.712,201.114 145.864,201.238 145.864 C 201.362 145.864,201.463 145.712,201.463 145.526 C 201.463 145.340,201.362 145.189,201.238 145.189 C 201.114 145.189,201.013 145.340,201.013 145.526 M184.584 146.145 C 184.587 146.555,184.629 146.587,184.806 146.314 C 185.088 145.878,185.088 145.639,184.806 145.639 C 184.682 145.639,184.582 145.867,184.584 146.145 M281.633 147.134 C 281.095 147.691,280.713 148.205,280.783 148.275 C 280.908 148.400,282.949 146.456,282.949 146.212 C 282.949 145.909,282.540 146.196,281.633 147.134 M219.925 146.441 C 219.930 146.712,221.028 147.759,221.164 147.622 C 221.221 147.566,220.964 147.229,220.594 146.875 C 220.224 146.520,219.923 146.325,219.925 146.441 M266.967 146.661 C 266.967 146.932,267.873 147.734,268.017 147.590 C 268.102 147.504,267.956 147.233,267.691 146.987 C 267.212 146.540,266.967 146.430,266.967 146.661 M184.131 148.678 C 184.131 148.987,184.232 149.240,184.356 149.240 C 184.479 149.240,184.581 148.987,184.581 148.678 C 184.581 148.368,184.479 148.115,184.356 148.115 C 184.232 148.115,184.131 148.368,184.131 148.678 M279.854 148.489 C 279.473 148.643,279.496 149.015,279.886 149.015 C 280.058 149.015,280.258 148.863,280.329 148.678 C 280.461 148.332,280.351 148.288,279.854 148.489 M196.286 149.465 C 196.286 149.589,196.438 149.690,196.624 149.690 C 196.809 149.690,196.961 149.589,196.961 149.465 C 196.961 149.342,196.809 149.240,196.624 149.240 C 196.438 149.240,196.286 149.342,196.286 149.465 M278.222 149.465 C 278.222 149.589,278.374 149.690,278.559 149.690 C 278.745 149.690,278.897 149.589,278.897 149.465 C 278.897 149.342,278.745 149.240,278.559 149.240 C 278.374 149.240,278.222 149.342,278.222 149.465 M190.321 149.916 L 186.719 150.046 190.503 150.093 C 192.980 150.124,194.239 150.063,194.147 149.916 C 194.071 149.792,193.989 149.712,193.965 149.738 C 193.942 149.764,192.302 149.844,190.321 149.916 M272.672 149.972 C 272.614 150.065,273.511 150.126,274.663 150.107 C 276.843 150.072,276.657 149.974,274.204 149.866 C 273.418 149.831,272.729 149.879,272.672 149.972 M227.074 150.081 C 227.603 150.128,228.414 150.128,228.875 150.079 C 229.336 150.031,228.903 149.992,227.912 149.993 C 226.922 149.994,226.545 150.033,227.074 150.081 " stroke="none" fill="#3b3b3b" fill-rule="evenodd"></path><path id="path2" d="M199.437 72.954 C 199.437 73.066,200.450 73.157,201.688 73.157 C 202.926 73.157,203.939 73.063,203.939 72.949 C 203.939 72.834,202.926 72.743,201.688 72.746 C 200.450 72.749,199.437 72.843,199.437 72.954 M197.411 73.157 C 197.411 73.281,197.113 73.382,196.749 73.382 C 196.385 73.382,196.025 73.483,195.948 73.607 C 195.773 73.891,195.962 73.888,197.017 73.595 C 197.778 73.384,198.200 72.932,197.636 72.932 C 197.513 72.932,197.411 73.033,197.411 73.157 M205.748 73.241 C 206.143 73.611,207.629 73.933,207.426 73.604 C 207.351 73.482,206.991 73.382,206.627 73.382 C 206.263 73.382,205.965 73.281,205.965 73.157 C 205.965 73.033,205.842 72.932,205.692 72.932 C 205.505 72.932,205.522 73.029,205.748 73.241 M223.567 73.550 C 224.891 73.590,227.119 73.590,228.519 73.550 C 229.918 73.511,228.835 73.478,226.111 73.478 C 223.388 73.478,222.243 73.510,223.567 73.550 M247.877 73.550 C 249.201 73.590,251.430 73.590,252.829 73.550 C 254.229 73.511,253.146 73.478,250.422 73.478 C 247.698 73.478,246.553 73.510,247.877 73.550 M260.708 73.550 C 262.032 73.590,264.260 73.590,265.660 73.550 C 267.060 73.511,265.976 73.478,263.253 73.478 C 260.529 73.478,259.384 73.510,260.708 73.550 M283.905 73.551 C 287.960 73.585,294.595 73.585,298.649 73.551 C 302.704 73.516,299.387 73.488,291.277 73.488 C 283.168 73.488,279.851 73.516,283.905 73.551 M194.935 73.785 C 194.935 73.923,194.581 74.104,194.147 74.185 C 193.714 74.266,193.360 74.417,193.360 74.521 C 193.360 74.728,194.696 74.336,195.033 74.030 C 195.148 73.926,195.174 73.771,195.089 73.686 C 195.005 73.601,194.935 73.646,194.935 73.785 M208.270 73.820 C 208.354 74.129,209.552 74.597,209.751 74.399 C 209.803 74.347,209.554 74.233,209.199 74.146 C 208.844 74.059,208.470 73.877,208.368 73.741 C 208.247 73.581,208.213 73.608,208.270 73.820 M257.199 74.413 C 256.955 75.050,257.042 114.575,257.288 114.575 C 257.436 114.575,257.513 107.672,257.513 94.316 C 257.513 83.174,257.473 74.057,257.424 74.057 C 257.376 74.057,257.274 74.218,257.199 74.413 M269.001 89.666 C 268.997 102.663,269.049 105.337,269.306 105.551 C 269.523 105.731,271.456 105.803,275.751 105.789 C 279.795 105.776,281.968 105.851,282.125 106.008 C 282.256 106.139,282.440 106.246,282.533 106.246 C 282.627 106.246,282.450 105.993,282.140 105.684 L 281.578 105.121 275.510 105.121 L 269.443 105.121 269.443 89.715 C 269.443 79.968,269.362 74.259,269.224 74.174 C 269.083 74.086,269.003 79.591,269.001 89.666 M306.809 78.653 C 306.809 82.119,306.740 83.277,306.528 83.362 C 306.360 83.430,306.405 83.483,306.640 83.494 C 307.004 83.510,307.034 83.143,307.034 78.784 C 307.034 76.185,306.984 74.057,306.922 74.057 C 306.860 74.057,306.809 76.125,306.809 78.653 M94.691 74.658 C 94.609 74.740,94.543 74.917,94.545 75.052 C 94.547 75.197,94.620 75.183,94.726 75.016 C 94.864 74.798,98.352 74.723,110.423 74.676 L 125.943 74.617 110.392 74.562 C 101.839 74.532,94.774 74.575,94.691 74.658 M127.462 74.675 C 128.298 74.718,129.665 74.718,130.501 74.675 C 131.337 74.631,130.653 74.596,128.981 74.596 C 127.310 74.596,126.626 74.631,127.462 74.675 M141.756 74.676 C 147.110 74.710,155.872 74.710,161.227 74.676 C 166.581 74.643,162.200 74.615,151.491 74.615 C 140.782 74.615,136.401 74.643,141.756 74.676 M210.589 74.717 C 210.518 74.832,210.563 74.990,210.689 75.068 C 210.814 75.146,210.917 75.140,210.917 75.056 C 210.917 74.972,211.095 75.040,211.311 75.208 C 211.632 75.456,211.625 75.419,211.276 75.010 C 210.790 74.440,210.767 74.430,210.589 74.717 M191.334 75.408 C 191.334 75.532,191.182 75.633,190.996 75.633 C 190.810 75.633,190.658 75.738,190.658 75.866 C 190.658 76.024,190.803 76.022,191.109 75.858 C 191.509 75.644,191.740 75.183,191.446 75.183 C 191.384 75.183,191.334 75.284,191.334 75.408 M94.636 79.910 C 94.636 82.448,94.669 83.486,94.709 82.217 C 94.749 80.948,94.749 78.872,94.709 77.603 C 94.669 76.334,94.636 77.372,94.636 79.910 M188.126 77.364 C 187.909 77.421,187.732 77.561,187.732 77.675 C 187.732 77.993,188.094 77.924,188.407 77.546 C 188.562 77.361,188.650 77.221,188.604 77.235 C 188.558 77.249,188.343 77.307,188.126 77.364 M218.128 80.304 C 218.132 80.397,218.283 80.669,218.465 80.910 C 218.889 81.470,218.883 81.817,218.442 82.257 C 218.247 82.452,218.174 82.611,218.279 82.611 C 218.527 82.611,219.246 81.772,219.246 81.483 C 219.246 81.361,219.156 81.261,219.045 81.261 C 218.935 81.261,218.781 81.007,218.703 80.698 C 218.578 80.197,218.109 79.876,218.128 80.304 M217.670 83.024 C 217.670 83.168,217.524 83.286,217.346 83.286 C 217.167 83.286,216.966 83.376,216.898 83.486 C 216.830 83.596,216.951 83.672,217.166 83.655 C 217.591 83.621,218.019 83.110,217.803 82.894 C 217.730 82.821,217.670 82.879,217.670 83.024 M182.798 83.343 C 182.788 83.559,182.679 83.737,182.555 83.737 C 182.431 83.737,182.330 83.860,182.330 84.010 C 182.330 84.187,182.458 84.155,182.694 83.920 C 182.894 83.719,183.003 83.419,182.936 83.252 C 182.854 83.044,182.810 83.073,182.798 83.343 M276.083 83.737 C 276.168 83.873,277.844 83.962,280.360 83.962 C 282.876 83.962,284.552 83.873,284.637 83.737 C 284.728 83.589,283.247 83.512,280.360 83.512 C 277.473 83.512,275.992 83.589,276.083 83.737 M284.978 98.950 C 284.970 112.692,285.009 114.525,285.322 114.971 C 285.673 115.472,285.713 115.475,291.009 115.425 L 296.342 115.375 290.940 115.257 L 285.537 115.138 285.480 99.503 C 285.444 89.820,285.339 83.786,285.204 83.651 C 285.064 83.511,284.983 88.962,284.978 98.950 M297.055 83.662 C 296.801 83.916,296.876 114.845,297.130 114.688 C 297.277 114.597,297.355 109.189,297.355 99.199 L 297.355 83.849 301.744 83.915 C 304.678 83.958,306.134 83.902,306.134 83.746 C 306.134 83.485,297.314 83.403,297.055 83.662 M215.644 84.559 C 215.211 84.875,215.008 85.073,215.194 84.998 C 215.380 84.923,215.702 84.802,215.910 84.728 C 216.118 84.653,216.343 84.451,216.410 84.277 C 216.562 83.881,216.585 83.873,215.644 84.559 M200.788 84.862 C 200.544 85.020,200.751 85.081,201.533 85.084 C 202.198 85.086,202.562 85.000,202.476 84.862 C 202.299 84.576,201.231 84.576,200.788 84.862 M92.676 86.177 C 93.123 86.636,93.973 87.019,93.752 86.660 C 93.676 86.538,93.479 86.438,93.314 86.438 C 93.149 86.438,92.956 86.286,92.884 86.100 C 92.813 85.914,92.646 85.763,92.514 85.763 C 92.381 85.763,92.454 85.949,92.676 86.177 M206.190 86.207 C 206.190 86.334,206.335 86.438,206.512 86.438 C 206.689 86.438,206.993 86.597,207.187 86.792 C 207.382 86.986,207.541 87.039,207.541 86.910 C 207.541 86.780,207.237 86.517,206.866 86.325 C 206.481 86.126,206.190 86.075,206.190 86.207 M213.316 86.399 C 212.917 86.840,212.838 87.114,213.112 87.111 C 213.205 87.110,213.398 86.857,213.541 86.549 C 213.851 85.880,213.811 85.852,213.316 86.399 M94.316 87.523 C 94.316 87.866,94.941 88.282,95.335 88.201 C 95.600 88.146,95.511 88.015,95.008 87.719 C 94.628 87.496,94.316 87.407,94.316 87.523 M170.189 88.108 C 169.971 88.371,170.007 88.407,170.387 88.307 C 170.641 88.241,170.850 88.097,170.850 87.987 C 170.850 87.684,170.486 87.750,170.189 88.108 M98.479 119.415 L 98.481 150.703 132.684 150.760 C 151.495 150.792,166.963 150.741,167.056 150.648 C 167.149 150.555,151.809 150.478,132.966 150.478 L 98.706 150.478 98.592 119.302 L 98.477 88.126 98.479 119.415 M209.197 88.576 C 209.557 88.936,210.692 89.045,210.692 88.720 C 210.692 88.613,210.451 88.572,210.156 88.629 C 209.861 88.685,209.551 88.620,209.467 88.485 C 209.384 88.349,209.212 88.239,209.087 88.239 C 208.962 88.239,209.011 88.391,209.197 88.576 M180.346 88.888 C 180.179 88.991,180.128 89.230,180.222 89.474 C 180.365 89.849,180.397 89.839,180.572 89.368 C 180.795 88.764,180.739 88.645,180.346 88.888 M169.049 120.554 C 169.049 141.439,169.124 151.921,169.274 151.829 C 169.422 151.737,169.499 141.022,169.499 120.414 C 169.499 99.714,169.423 89.139,169.274 89.139 C 169.125 89.139,169.049 99.761,169.049 120.554 M192.684 90.264 C 192.521 90.570,192.518 90.715,192.676 90.715 C 192.805 90.715,192.909 90.571,192.909 90.396 C 192.909 90.220,193.036 90.026,193.191 89.963 C 193.403 89.878,193.405 89.845,193.199 89.832 C 193.048 89.822,192.817 90.017,192.684 90.264 M192.035 91.765 C 192.021 91.910,191.943 92.214,191.863 92.441 C 191.750 92.761,191.780 92.795,191.997 92.596 C 192.151 92.454,192.228 92.150,192.169 91.920 C 192.110 91.691,192.049 91.621,192.035 91.765 M179.797 91.970 C 179.705 92.064,179.632 92.402,179.635 92.722 C 179.641 93.232,179.671 93.254,179.876 92.902 C 180.132 92.462,180.068 91.697,179.797 91.970 M179.690 94.766 C 179.690 95.324,179.734 95.551,179.787 95.273 C 179.841 94.994,179.841 94.539,179.787 94.260 C 179.734 93.981,179.690 94.209,179.690 94.766 M179.629 96.878 C 179.629 97.188,179.730 97.504,179.854 97.580 C 179.981 97.659,180.079 97.474,180.079 97.157 C 180.079 96.847,179.977 96.531,179.854 96.455 C 179.727 96.376,179.629 96.560,179.629 96.878 M191.909 97.243 C 192.097 98.211,192.187 98.373,192.529 98.350 C 192.722 98.337,192.718 98.301,192.515 98.219 C 192.361 98.157,192.233 97.886,192.231 97.618 C 192.229 97.349,192.121 96.978,191.992 96.792 C 191.819 96.544,191.797 96.663,191.909 97.243 M192.592 98.785 C 192.527 98.891,192.613 99.167,192.783 99.400 C 193.068 99.790,193.083 99.775,192.974 99.208 C 192.849 98.554,192.782 98.479,192.592 98.785 M180.231 100.033 C 180.143 100.264,180.220 100.567,180.417 100.764 C 180.796 101.143,180.855 100.844,180.553 100.073 C 180.395 99.672,180.371 99.669,180.231 100.033 M231.855 100.675 C 231.853 101.016,231.953 101.294,232.077 101.294 C 232.361 101.294,232.361 100.834,232.077 100.394 C 231.906 100.131,231.858 100.193,231.855 100.675 M219.928 100.732 C 219.928 100.979,220.026 101.334,220.146 101.519 C 220.327 101.799,220.365 101.780,220.365 101.407 C 220.365 101.159,220.266 100.805,220.146 100.619 C 219.966 100.339,219.928 100.359,219.928 100.732 M209.342 100.844 C 209.342 100.968,209.190 101.069,209.004 101.069 C 208.818 101.069,208.666 101.221,208.666 101.407 C 208.666 101.593,208.548 101.745,208.404 101.745 C 208.259 101.745,208.210 101.813,208.293 101.897 C 208.377 101.981,208.723 101.791,209.063 101.475 C 209.402 101.159,209.831 100.845,210.017 100.777 C 210.237 100.697,210.179 100.648,209.848 100.637 C 209.569 100.627,209.342 100.720,209.342 100.844 M244.147 101.641 C 244.070 101.842,244.016 102.226,244.027 102.494 C 244.041 102.840,244.111 102.762,244.265 102.226 C 244.489 101.447,244.397 100.989,244.147 101.641 M212.050 101.876 C 212.046 102.010,212.436 102.436,212.917 102.822 C 213.748 103.490,213.779 103.497,213.536 102.974 C 213.396 102.671,213.109 102.423,212.898 102.422 C 212.688 102.421,212.412 102.243,212.286 102.026 C 212.160 101.809,212.053 101.742,212.050 101.876 M232.103 101.998 C 232.088 102.200,232.228 102.491,232.414 102.645 C 232.647 102.839,232.752 102.847,232.752 102.672 C 232.752 102.534,232.658 102.420,232.543 102.420 C 232.429 102.420,232.288 102.243,232.232 102.026 C 232.145 101.694,232.125 101.689,232.103 101.998 M220.283 103.226 C 220.100 103.702,220.101 103.705,220.449 103.838 C 220.665 103.921,220.722 103.801,220.648 103.412 C 220.526 102.776,220.467 102.746,220.283 103.226 M255.665 104.067 C 255.587 104.474,255.641 104.598,255.860 104.514 C 256.209 104.380,256.231 104.228,255.964 103.806 C 255.823 103.584,255.744 103.653,255.665 104.067 M198.199 104.221 C 198.814 104.485,198.987 104.485,198.987 104.221 C 198.987 104.097,198.708 104.003,198.368 104.011 C 197.820 104.025,197.800 104.049,198.199 104.221 M200.113 104.441 C 200.113 104.749,201.029 104.947,201.938 104.836 C 202.563 104.760,202.507 104.736,201.632 104.707 C 201.044 104.687,200.563 104.569,200.563 104.446 C 200.563 104.322,200.461 104.221,200.338 104.221 C 200.214 104.221,200.113 104.320,200.113 104.441 M215.194 104.424 C 215.194 104.519,215.599 104.921,216.095 105.319 C 216.590 105.717,216.995 106.004,216.995 105.956 C 216.995 105.909,216.590 105.506,216.095 105.062 C 215.599 104.617,215.194 104.330,215.194 104.424 M242.038 105.256 C 241.759 105.574,241.649 105.794,241.793 105.746 C 242.036 105.665,242.814 104.666,242.627 104.675 C 242.581 104.677,242.316 104.939,242.038 105.256 M237.166 106.512 C 237.309 106.743,239.280 106.758,239.280 106.528 C 239.279 106.435,238.778 106.352,238.166 106.343 C 237.553 106.334,237.103 106.410,237.166 106.512 M221.216 106.621 C 221.370 106.683,221.497 106.928,221.497 107.166 C 221.497 107.403,221.598 107.597,221.722 107.597 C 222.007 107.597,222.005 107.451,221.714 106.907 C 221.586 106.668,221.358 106.480,221.208 106.489 C 221.002 106.503,221.003 106.535,221.216 106.621 M218.796 107.935 C 218.796 108.120,218.897 108.272,219.021 108.272 C 219.145 108.272,219.246 108.120,219.246 107.935 C 219.246 107.749,219.145 107.597,219.021 107.597 C 218.897 107.597,218.796 107.749,218.796 107.935 M254.055 108.280 C 253.828 108.664,253.703 109.039,253.777 109.113 C 253.851 109.187,253.911 109.137,253.911 109.001 C 253.911 108.866,254.071 108.595,254.267 108.399 C 254.462 108.203,254.588 107.939,254.545 107.812 C 254.503 107.684,254.282 107.895,254.055 108.280 M185.485 109.792 C 185.483 110.070,185.582 110.298,185.706 110.298 C 185.988 110.298,185.988 110.059,185.706 109.623 C 185.530 109.350,185.487 109.382,185.485 109.792 M186.156 110.402 C 186.156 110.592,186.261 110.748,186.389 110.748 C 186.517 110.748,186.922 111.056,187.290 111.432 C 187.657 111.807,187.957 112.026,187.957 111.918 C 187.957 111.810,187.552 111.346,187.057 110.888 C 186.457 110.333,186.156 110.171,186.156 110.402 M223.526 110.692 C 223.524 110.971,223.624 111.199,223.748 111.199 C 224.030 111.199,224.030 110.960,223.748 110.523 C 223.571 110.250,223.529 110.283,223.526 110.692 M215.813 111.415 C 215.375 111.843,215.308 112.099,215.636 112.099 C 215.854 112.099,216.422 111.217,216.282 111.096 C 216.241 111.061,216.030 111.204,215.813 111.415 M224.803 112.073 C 225.151 112.431,225.475 112.687,225.523 112.643 C 225.641 112.534,224.581 111.432,224.353 111.428 C 224.252 111.425,224.455 111.716,224.803 112.073 M251.341 112.001 C 250.918 112.423,250.864 112.700,251.266 112.382 C 251.421 112.260,251.695 112.114,251.874 112.058 C 252.097 111.989,252.121 111.907,251.949 111.801 C 251.810 111.715,251.536 111.805,251.341 112.001 M214.575 112.311 C 214.043 112.755,213.934 112.999,214.268 112.999 C 214.377 112.999,214.633 112.746,214.836 112.437 C 215.273 111.769,215.243 111.754,214.575 112.311 M228.116 114.401 C 228.147 114.559,228.418 114.717,228.718 114.754 C 229.135 114.804,229.186 114.768,228.936 114.600 C 228.756 114.479,228.537 114.424,228.449 114.479 C 228.360 114.533,228.237 114.473,228.173 114.346 C 228.110 114.218,228.084 114.243,228.116 114.401 M247.833 114.490 L 247.271 114.819 247.833 114.669 C 248.460 114.502,248.629 114.396,248.490 114.256 C 248.438 114.204,248.142 114.310,247.833 114.490 M210.523 114.582 C 210.245 114.694,210.018 114.916,210.020 115.074 C 210.023 115.257,210.084 115.278,210.189 115.132 C 210.280 115.004,210.608 114.783,210.917 114.640 C 211.581 114.334,211.259 114.286,210.523 114.582 M270.006 115.250 L 258.075 115.369 270.062 115.422 C 277.938 115.457,282.048 115.398,282.048 115.250 C 282.048 115.127,282.023 115.049,281.992 115.079 C 281.961 115.108,276.567 115.185,270.006 115.250 M234.553 116.295 C 234.738 116.376,234.957 116.546,235.039 116.671 C 235.138 116.824,235.507 116.822,236.164 116.664 L 237.141 116.430 236.241 116.400 C 235.746 116.383,235.087 116.319,234.778 116.258 C 234.468 116.196,234.367 116.213,234.553 116.295 M240.405 116.365 L 239.392 116.512 240.261 116.699 C 240.810 116.817,241.183 116.801,241.274 116.657 C 241.353 116.531,241.621 116.377,241.868 116.316 L 242.319 116.203 241.868 116.211 C 241.621 116.215,240.962 116.284,240.405 116.365 M198.987 116.601 C 198.987 116.870,199.600 116.870,200.225 116.601 C 200.586 116.446,200.508 116.404,199.831 116.392 C 199.367 116.383,198.987 116.477,198.987 116.601 M203.151 116.601 C 203.777 116.870,204.389 116.870,204.389 116.601 C 204.389 116.477,204.010 116.383,203.545 116.392 C 202.868 116.404,202.790 116.446,203.151 116.601 M191.334 121.328 C 191.334 121.452,190.935 121.553,190.447 121.553 C 189.959 121.553,189.490 121.665,189.405 121.802 C 189.299 121.974,189.470 122.009,189.955 121.915 C 190.342 121.840,190.962 121.720,191.334 121.648 C 192.025 121.514,192.280 121.103,191.671 121.103 C 191.486 121.103,191.334 121.204,191.334 121.328 M196.511 121.314 C 196.511 121.574,198.266 121.857,199.008 121.717 C 199.306 121.660,199.069 121.601,198.481 121.584 C 197.893 121.567,197.411 121.452,197.411 121.328 C 197.411 121.204,197.209 121.103,196.961 121.103 C 196.714 121.103,196.511 121.198,196.511 121.314 M263.703 124.479 C 263.703 126.312,263.779 127.766,263.872 127.708 C 264.090 127.574,264.086 121.749,263.868 121.405 C 263.777 121.262,263.703 122.645,263.703 124.479 M186.473 123.042 L 185.819 123.630 186.550 123.218 C 186.953 122.992,187.282 122.727,187.282 122.630 C 187.282 122.356,187.175 122.410,186.473 123.042 M200.137 123.016 C 200.121 123.388,200.061 124.097,200.005 124.592 C 199.948 125.087,199.961 125.290,200.033 125.042 C 200.105 124.795,200.271 124.525,200.400 124.444 C 200.564 124.341,200.564 123.997,200.401 123.318 C 200.195 122.459,200.163 122.422,200.137 123.016 M184.280 125.172 C 184.060 125.430,183.912 125.737,183.952 125.856 C 183.991 125.975,184.205 125.764,184.427 125.388 C 184.898 124.591,184.845 124.513,184.280 125.172 M205.562 127.800 L 205.515 130.332 203.658 130.339 C 201.002 130.349,201.013 130.335,201.013 133.752 C 201.013 137.069,200.992 137.043,203.714 137.139 L 205.402 137.198 205.462 143.219 L 205.522 149.240 209.471 149.240 C 212.046 149.240,213.372 149.162,213.281 149.015 C 213.197 148.880,211.667 148.790,209.445 148.790 L 205.747 148.790 205.687 142.881 L 205.627 136.972 203.602 136.860 L 201.576 136.747 201.576 133.708 L 201.576 130.670 203.556 130.604 C 205.898 130.527,205.779 130.694,205.683 127.616 L 205.610 125.267 205.562 127.800 M196.961 127.856 C 196.961 128.138,197.200 128.138,197.636 127.856 C 197.910 127.679,197.877 127.637,197.468 127.634 C 197.189 127.632,196.961 127.732,196.961 127.856 M291.840 129.882 C 291.764 130.006,291.853 130.107,292.039 130.107 C 292.224 130.107,292.439 130.006,292.515 129.882 C 292.592 129.758,292.503 129.657,292.317 129.657 C 292.131 129.657,291.917 129.758,291.840 129.882 M293.817 129.822 C 294.408 129.869,295.320 129.868,295.842 129.821 C 296.365 129.774,295.881 129.736,294.766 129.737 C 293.652 129.737,293.225 129.776,293.817 129.822 M225.549 130.069 C 225.549 130.214,225.321 130.334,225.042 130.335 C 224.764 130.337,224.384 130.439,224.198 130.560 C 223.960 130.716,224.093 130.740,224.648 130.640 C 225.507 130.485,225.945 130.203,225.702 129.961 C 225.618 129.876,225.549 129.925,225.549 130.069 M276.421 130.092 C 276.421 130.207,276.624 130.359,276.871 130.429 C 277.119 130.500,277.537 130.619,277.800 130.694 C 278.118 130.785,278.227 130.747,278.124 130.581 C 278.039 130.444,277.723 130.332,277.421 130.332 C 277.118 130.332,276.871 130.231,276.871 130.107 C 276.871 129.983,276.770 129.882,276.646 129.882 C 276.522 129.882,276.421 129.976,276.421 130.092 M298.340 130.136 C 298.404 130.467,299.381 130.856,299.381 130.550 C 299.381 130.430,299.187 130.332,298.950 130.332 C 298.712 130.332,298.467 130.228,298.404 130.101 C 298.341 129.974,298.312 129.990,298.340 130.136 M215.082 130.543 L 217.107 130.670 217.170 133.652 C 217.252 137.531,217.670 137.646,217.670 133.790 C 217.670 130.303,217.693 130.331,214.969 130.382 L 213.056 130.417 215.082 130.543 M232.077 130.484 C 235.072 130.647,238.329 130.656,238.233 130.501 C 238.175 130.408,236.488 130.351,234.483 130.375 C 232.479 130.398,231.396 130.447,232.077 130.484 M239.652 130.501 C 239.594 130.594,240.120 130.641,240.820 130.606 C 243.019 130.496,243.284 130.401,241.488 130.366 C 240.536 130.347,239.709 130.408,239.652 130.501 M251.548 130.465 C 252.624 130.636,255.217 130.667,255.118 130.507 C 255.059 130.411,254.130 130.346,253.054 130.363 C 251.978 130.380,251.300 130.426,251.548 130.465 M263.565 130.640 C 263.748 130.860,263.804 133.476,263.762 139.891 L 263.703 148.835 260.290 148.803 C 258.126 148.782,256.823 148.856,256.731 149.005 C 256.632 149.165,257.739 149.240,260.176 149.240 C 263.243 149.240,263.787 149.188,263.904 148.884 C 264.361 147.692,264.020 130.332,263.539 130.332 C 263.397 130.332,263.407 130.449,263.565 130.640 M271.351 130.566 C 271.256 130.720,271.425 130.748,271.844 130.647 C 272.706 130.440,272.788 130.332,272.082 130.332 C 271.759 130.332,271.430 130.437,271.351 130.566 M191.560 131.309 C 191.869 131.661,192.324 132.053,192.572 132.181 C 193.046 132.425,193.032 132.410,191.785 131.343 L 190.998 130.670 191.560 131.309 M183.367 131.418 C 183.276 131.565,183.360 131.844,183.553 132.038 C 183.931 132.416,183.976 132.280,183.703 131.585 C 183.585 131.284,183.482 131.232,183.367 131.418 M268.374 132.140 C 268.095 132.252,267.867 132.397,267.867 132.463 C 267.867 132.682,268.225 132.587,268.668 132.253 C 269.166 131.876,269.097 131.849,268.374 132.140 M281.373 132.593 C 281.373 132.689,281.652 133.006,281.992 133.297 C 282.333 133.587,282.753 134.099,282.926 134.434 C 283.100 134.770,283.341 134.983,283.462 134.908 C 283.586 134.831,283.522 134.682,283.315 134.567 C 283.114 134.454,282.949 134.258,282.949 134.132 C 282.949 134.006,282.594 133.569,282.161 133.160 C 281.728 132.752,281.373 132.496,281.373 132.593 M266.967 133.438 C 266.967 133.661,266.891 133.942,266.798 134.062 C 266.705 134.182,266.806 134.090,267.023 133.857 C 267.462 133.385,267.534 133.033,267.192 133.033 C 267.068 133.033,266.967 133.216,266.967 133.438 M184.515 134.377 C 184.723 134.621,184.940 134.775,184.995 134.720 C 185.129 134.586,184.578 133.934,184.330 133.934 C 184.223 133.934,184.306 134.133,184.515 134.377 M219.171 134.534 C 218.930 134.775,218.998 135.325,219.250 135.169 C 219.375 135.092,219.425 134.942,219.361 134.838 C 219.296 134.733,219.370 134.596,219.526 134.533 C 219.682 134.470,219.700 134.411,219.565 134.402 C 219.431 134.392,219.253 134.451,219.171 134.534 M198.875 135.509 C 199.358 136.005,199.804 136.410,199.866 136.410 C 199.928 136.410,199.583 136.005,199.100 135.509 C 198.616 135.014,198.170 134.609,198.108 134.609 C 198.046 134.609,198.391 135.014,198.875 135.509 M186.488 136.466 C 186.705 136.806,187.017 137.085,187.179 137.085 C 187.342 137.085,187.634 137.244,187.829 137.439 C 188.023 137.633,188.182 137.687,188.182 137.559 C 188.182 137.431,187.954 137.208,187.676 137.065 C 187.397 136.921,186.927 136.588,186.630 136.325 L 186.092 135.847 186.488 136.466 M218.496 136.110 C 218.413 136.192,218.352 136.471,218.360 136.729 C 218.373 137.160,218.391 137.154,218.590 136.658 C 218.810 136.107,218.764 135.841,218.496 136.110 M294.879 136.185 C 294.879 136.308,295.158 136.403,295.498 136.394 C 296.047 136.380,296.066 136.356,295.667 136.185 C 295.052 135.920,294.879 135.920,294.879 136.185 M213.315 137.029 C 213.257 137.122,213.834 137.169,214.596 137.135 C 217.078 137.023,217.372 136.933,215.376 136.896 C 214.300 136.876,213.373 136.936,213.315 137.029 M240.180 136.999 C 241.484 137.166,243.507 137.185,243.410 137.029 C 243.352 136.936,242.475 136.875,241.461 136.894 C 240.447 136.912,239.871 136.960,240.180 136.999 M251.209 137.029 C 251.209 137.122,251.842 137.169,252.616 137.135 C 255.009 137.027,255.239 136.929,253.180 136.894 C 252.096 136.875,251.210 136.936,251.209 137.029 M226.449 137.423 C 226.255 137.656,226.247 137.760,226.422 137.760 C 226.560 137.760,226.674 137.659,226.674 137.535 C 226.674 137.018,228.706 137.293,229.253 137.884 C 229.578 138.235,229.842 138.365,229.932 138.220 C 230.013 138.089,229.895 137.915,229.671 137.832 C 229.446 137.749,229.182 137.547,229.083 137.383 C 228.827 136.960,226.808 136.990,226.449 137.423 M274.792 137.244 C 275.072 137.298,275.477 137.296,275.692 137.240 C 275.907 137.183,275.678 137.139,275.183 137.142 C 274.688 137.144,274.512 137.190,274.792 137.244 M296.005 142.825 C 296.005 149.781,295.655 149.240,300.156 149.240 C 302.175 149.240,303.461 149.151,303.552 149.005 C 303.651 148.844,302.598 148.780,300.245 148.802 L 296.792 148.835 296.732 143.073 C 296.681 138.157,296.623 137.310,296.338 137.310 C 296.052 137.310,296.005 138.101,296.005 142.825 M188.407 137.774 C 188.407 137.905,188.501 137.954,188.614 137.884 C 188.728 137.814,188.981 137.916,189.177 138.112 C 189.373 138.308,189.533 138.363,189.533 138.234 C 189.533 138.106,189.337 137.896,189.098 137.768 C 188.548 137.474,188.407 137.475,188.407 137.774 M276.431 137.824 C 276.623 137.975,276.952 138.348,277.163 138.654 C 277.374 138.961,277.546 139.101,277.546 138.966 C 277.546 138.598,276.651 137.534,276.348 137.542 C 276.188 137.547,276.220 137.658,276.431 137.824 M284.331 137.760 C 284.331 137.946,284.418 138.301,284.524 138.548 C 284.646 138.832,284.718 138.873,284.718 138.661 C 284.718 138.475,284.631 138.120,284.524 137.873 C 284.403 137.589,284.331 137.547,284.331 137.760 M200.579 137.916 C 200.629 138.500,200.981 138.996,200.997 138.505 C 201.006 138.234,200.912 137.949,200.788 137.873 C 200.664 137.796,200.570 137.816,200.579 137.916 M217.670 138.647 C 217.670 138.888,217.772 139.147,217.895 139.223 C 218.023 139.302,218.120 139.113,218.120 138.786 C 218.120 138.470,218.019 138.210,217.895 138.210 C 217.772 138.210,217.670 138.407,217.670 138.647 M192.463 139.264 C 192.469 139.609,192.884 140.112,193.037 139.959 C 193.120 139.876,193.024 139.644,192.824 139.443 C 192.623 139.243,192.461 139.162,192.463 139.264 M264.491 140.011 C 264.491 140.506,264.585 140.912,264.699 140.912 C 264.814 140.912,264.951 141.038,265.005 141.193 C 265.058 141.348,265.067 141.272,265.024 141.024 C 264.982 140.777,264.946 140.245,264.944 139.842 C 264.942 139.440,264.840 139.111,264.716 139.111 C 264.592 139.111,264.491 139.516,264.491 140.011 M284.581 139.899 C 284.584 140.394,284.630 140.570,284.684 140.290 C 284.738 140.010,284.735 139.605,284.679 139.390 C 284.623 139.174,284.579 139.403,284.581 139.899 M201.238 140.223 C 201.238 140.478,201.339 140.687,201.463 140.687 C 201.587 140.687,201.688 140.541,201.688 140.362 C 201.688 140.184,201.587 139.975,201.463 139.899 C 201.339 139.822,201.238 139.968,201.238 140.223 M224.907 140.461 C 224.896 140.647,225.036 140.996,225.218 141.236 C 225.506 141.617,225.549 141.624,225.549 141.292 C 225.549 141.083,225.455 140.912,225.340 140.912 C 225.225 140.912,225.085 140.734,225.029 140.518 C 224.956 140.242,224.920 140.225,224.907 140.461 M217.820 140.612 C 217.587 140.845,217.644 141.587,217.895 141.587 C 218.019 141.587,218.120 141.334,218.120 141.024 C 218.120 140.435,218.068 140.363,217.820 140.612 M277.167 141.080 C 277.090 141.297,276.984 141.576,276.932 141.699 C 276.880 141.823,276.997 141.728,277.192 141.488 C 277.546 141.051,277.653 140.687,277.427 140.687 C 277.361 140.687,277.244 140.864,277.167 141.080 M284.551 141.062 C 284.536 141.207,284.459 141.511,284.379 141.737 C 284.266 142.057,284.296 142.092,284.512 141.892 C 284.666 141.751,284.743 141.447,284.684 141.217 C 284.625 140.987,284.565 140.917,284.551 141.062 M229.544 141.757 C 229.328 141.806,229.150 141.981,229.150 142.147 C 229.150 142.314,229.024 142.501,228.869 142.563 C 228.714 142.626,228.689 142.682,228.813 142.687 C 229.065 142.699,230.164 141.837,230.026 141.735 C 229.978 141.699,229.761 141.709,229.544 141.757 M227.260 142.750 C 227.324 142.853,227.567 142.938,227.800 142.938 C 228.033 142.938,228.275 142.853,228.339 142.750 C 228.403 142.647,228.160 142.562,227.800 142.562 C 227.439 142.562,227.196 142.647,227.260 142.750 M274.170 142.769 C 274.170 142.862,274.417 142.938,274.719 142.938 C 275.022 142.938,275.316 142.862,275.373 142.769 C 275.431 142.676,275.183 142.600,274.824 142.600 C 274.464 142.600,274.170 142.676,274.170 142.769 M185.256 143.500 C 185.256 143.686,185.155 143.838,185.031 143.838 C 184.907 143.838,184.806 143.990,184.806 144.176 C 184.806 144.741,185.142 144.553,185.412 143.838 C 185.552 143.467,185.575 143.163,185.462 143.163 C 185.349 143.163,185.256 143.315,185.256 143.500 M187.024 143.445 C 187.137 143.558,187.470 143.613,187.762 143.567 C 188.213 143.496,188.181 143.465,187.556 143.361 C 187.109 143.287,186.899 143.320,187.024 143.445 M201.238 143.626 C 201.238 143.881,201.339 144.027,201.463 143.950 C 201.587 143.874,201.688 143.665,201.688 143.487 C 201.688 143.309,201.587 143.163,201.463 143.163 C 201.339 143.163,201.238 143.371,201.238 143.626 M188.858 143.613 C 188.858 143.737,189.339 143.828,189.927 143.815 C 190.798 143.797,190.892 143.760,190.433 143.613 C 189.620 143.352,188.858 143.352,188.858 143.613 M191.221 143.613 C 191.145 143.737,191.297 143.838,191.559 143.838 C 191.821 143.838,191.973 143.737,191.896 143.613 C 191.820 143.489,191.668 143.388,191.559 143.388 C 191.450 143.388,191.298 143.489,191.221 143.613 M283.624 144.063 C 283.461 144.368,283.458 144.513,283.616 144.513 C 283.744 144.513,283.849 144.370,283.849 144.194 C 283.849 144.019,283.976 143.824,284.131 143.762 C 284.343 143.676,284.345 143.644,284.138 143.631 C 283.988 143.621,283.757 143.815,283.624 144.063 M266.066 145.032 C 266.066 145.215,266.218 145.424,266.404 145.495 C 266.590 145.566,266.742 145.830,266.742 146.082 C 266.742 146.333,266.877 146.539,267.042 146.539 C 267.207 146.539,267.621 146.852,267.961 147.233 C 268.301 147.615,268.641 147.866,268.716 147.791 C 268.791 147.716,268.626 147.495,268.349 147.301 C 268.072 147.107,267.445 146.442,266.956 145.823 C 266.467 145.204,266.066 144.848,266.066 145.032 M281.475 147.046 L 280.585 148.002 281.542 147.112 C 282.432 146.285,282.602 146.089,282.432 146.089 C 282.395 146.089,281.964 146.519,281.475 147.046 M184.731 146.914 C 184.495 147.150,184.555 148.115,184.806 148.115 C 184.930 148.115,185.031 147.811,185.031 147.440 C 185.031 146.740,184.985 146.660,184.731 146.914 M269.010 148.080 C 269.001 148.246,269.195 148.435,269.443 148.500 C 269.690 148.565,269.893 148.707,269.893 148.816 C 269.893 148.926,270.007 149.015,270.146 149.015 C 270.320 149.015,270.312 148.911,270.118 148.678 C 269.964 148.492,269.707 148.340,269.547 148.340 C 269.386 148.340,269.204 148.213,269.142 148.059 C 269.056 147.847,269.024 147.852,269.010 148.080 M222.782 148.537 C 223.301 149.036,223.649 149.177,223.411 148.791 C 223.335 148.668,223.050 148.453,222.779 148.313 L 222.285 148.059 222.782 148.537 M243.782 149.027 C 243.782 149.152,245.269 149.240,247.383 149.240 C 249.497 149.240,250.985 149.152,250.985 149.027 C 250.985 148.902,249.497 148.814,247.383 148.814 C 245.269 148.814,243.782 148.902,243.782 149.027 M270.683 149.018 C 270.758 149.140,270.958 149.240,271.126 149.240 C 271.294 149.240,271.483 149.344,271.546 149.471 C 271.609 149.598,271.637 149.582,271.609 149.436 C 271.581 149.290,271.330 149.086,271.052 148.983 C 270.731 148.865,270.596 148.877,270.683 149.018 M285.875 149.015 C 285.875 149.157,287.380 149.240,289.940 149.240 C 292.593 149.240,293.957 149.162,293.866 149.015 C 293.782 148.879,292.175 148.790,289.801 148.790 C 287.334 148.790,285.875 148.874,285.875 149.015 M185.706 149.690 C 185.706 149.814,185.959 149.916,186.269 149.916 C 186.579 149.916,186.832 149.814,186.832 149.690 C 186.832 149.567,186.579 149.465,186.269 149.465 C 185.959 149.465,185.706 149.567,185.706 149.690 M194.035 149.690 C 194.471 149.973,194.710 149.973,194.710 149.690 C 194.710 149.567,194.482 149.467,194.204 149.469 C 193.794 149.472,193.762 149.514,194.035 149.690 M225.549 149.690 C 225.549 149.814,225.701 149.916,225.886 149.916 C 226.072 149.916,226.224 149.814,226.224 149.690 C 226.224 149.567,226.072 149.465,225.886 149.465 C 225.701 149.465,225.549 149.567,225.549 149.690 M229.375 149.690 C 229.375 149.814,229.527 149.916,229.713 149.916 C 229.899 149.916,230.051 149.814,230.051 149.690 C 230.051 149.567,229.899 149.465,229.713 149.465 C 229.527 149.465,229.375 149.567,229.375 149.690 M97.468 152.842 C 97.468 152.991,109.435 153.067,132.921 153.067 C 156.406 153.067,168.374 152.991,168.374 152.842 C 168.374 152.693,156.406 152.617,132.921 152.617 C 109.435 152.617,97.468 152.693,97.468 152.842 " stroke="none" fill="#acacac" fill-rule="evenodd"></path><path id="path3" d="M231.957 87.113 C 231.957 94.356,231.985 97.319,232.020 93.697 C 232.055 90.076,232.055 84.150,232.020 80.529 C 231.985 76.908,231.957 79.871,231.957 87.113 M256.268 87.676 C 256.268 95.104,256.296 98.110,256.331 94.356 C 256.365 90.602,256.365 84.525,256.331 80.850 C 256.296 77.176,256.268 80.248,256.268 87.676 M275.017 77.265 C 275.127 82.451,275.207 82.949,275.251 78.728 C 275.276 76.407,275.219 74.507,275.127 74.507 C 275.034 74.507,274.984 75.748,275.017 77.265 M307.128 78.672 C 307.128 81.024,307.162 81.956,307.202 80.742 C 307.243 79.529,307.243 77.604,307.202 76.466 C 307.161 75.327,307.128 76.320,307.128 78.672 M194.323 88.070 C 193.919 88.592,193.782 88.914,193.965 88.912 C 194.065 88.911,194.265 88.658,194.408 88.349 C 194.692 87.736,194.661 87.632,194.323 88.070 M167.079 119.190 L 167.023 150.253 133.103 150.195 C 110.496 150.156,99.107 150.212,98.955 150.364 C 98.803 150.517,109.895 150.591,132.883 150.591 C 159.999 150.591,167.059 150.533,167.144 150.310 C 167.203 150.155,167.225 136.100,167.193 119.077 L 167.134 88.126 167.079 119.190 M98.703 119.190 C 98.703 136.151,98.729 143.056,98.762 134.535 C 98.795 126.014,98.795 112.137,98.762 103.697 C 98.729 95.257,98.703 102.228,98.703 119.190 M96.452 120.540 C 96.452 137.873,96.478 144.930,96.511 136.223 C 96.544 127.516,96.544 113.335,96.511 104.709 C 96.478 96.084,96.452 103.208,96.452 120.540 M250.728 112.769 L 250.197 113.214 250.814 112.938 C 251.154 112.786,251.432 112.586,251.433 112.493 C 251.436 112.235,251.306 112.285,250.728 112.769 M243.452 125.436 C 243.273 126.233,243.202 130.555,243.370 130.378 C 243.505 130.237,243.745 124.929,243.617 124.929 C 243.589 124.930,243.514 125.158,243.452 125.436 M205.065 127.843 C 205.065 129.092,205.164 130.142,205.290 130.219 C 205.434 130.309,205.515 129.509,205.515 127.982 C 205.515 126.547,205.426 125.605,205.290 125.605 C 205.155 125.605,205.065 126.501,205.065 127.843 M213.168 127.968 C 213.168 129.505,213.249 130.309,213.393 130.219 C 213.518 130.143,213.618 129.134,213.618 127.968 C 213.618 126.803,213.518 125.794,213.393 125.718 C 213.249 125.628,213.168 126.432,213.168 127.968 M183.155 128.456 C 182.955 128.656,182.970 129.703,183.177 130.029 C 183.268 130.172,183.343 129.843,183.343 129.298 C 183.343 128.752,183.334 128.306,183.324 128.306 C 183.314 128.306,183.238 128.374,183.155 128.456 M238.324 136.466 C 238.355 139.840,238.409 144.069,238.443 145.864 C 238.477 147.659,238.527 144.899,238.555 139.730 C 238.582 134.561,238.528 130.332,238.436 130.332 C 238.343 130.332,238.292 133.092,238.324 136.466 M239.378 130.626 C 239.316 130.788,239.294 132.180,239.330 133.721 L 239.395 136.522 239.506 133.427 C 239.616 130.376,239.601 130.045,239.378 130.626 M258.582 130.499 C 259.479 130.542,260.948 130.542,261.846 130.499 C 262.743 130.456,262.009 130.421,260.214 130.421 C 258.419 130.421,257.684 130.456,258.582 130.499 M293.898 137.132 C 293.822 137.416,293.780 140.129,293.804 143.163 L 293.848 148.678 293.970 142.712 C 294.036 139.432,294.079 136.718,294.063 136.682 C 294.048 136.646,293.974 136.849,293.898 137.132 M213.318 137.235 C 213.059 137.494,213.140 148.609,213.400 148.448 C 213.599 148.325,213.727 137.085,213.529 137.085 C 213.496 137.085,213.401 137.153,213.318 137.235 M205.215 137.460 C 204.964 137.711,205.037 148.565,205.290 148.565 C 205.434 148.565,205.515 146.539,205.515 142.938 C 205.515 139.842,205.481 137.310,205.440 137.310 C 205.399 137.310,205.297 137.378,205.215 137.460 M243.378 142.981 C 243.352 146.161,243.407 148.811,243.500 148.868 C 243.593 148.926,243.643 147.235,243.611 145.111 C 243.503 137.898,243.425 137.182,243.378 142.981 M303.756 142.938 C 303.756 146.095,303.787 147.386,303.826 145.808 C 303.865 144.229,303.865 141.646,303.826 140.068 C 303.787 138.489,303.756 139.781,303.756 142.938 M201.531 141.812 C 201.531 142.493,201.573 142.772,201.624 142.431 C 201.676 142.091,201.676 141.533,201.624 141.193 C 201.573 140.853,201.531 141.131,201.531 141.812 M225.563 141.373 C 225.548 141.740,225.963 142.262,226.269 142.262 C 226.368 142.262,226.449 142.155,226.449 142.024 C 226.449 141.893,226.347 141.849,226.222 141.926 C 226.097 142.003,225.901 141.832,225.786 141.545 C 225.662 141.235,225.571 141.166,225.563 141.373 M189.983 143.474 C 189.983 143.665,191.128 143.764,191.240 143.583 C 191.306 143.475,191.050 143.388,190.672 143.388 C 190.293 143.388,189.983 143.427,189.983 143.474 M189.260 149.857 C 190.039 149.901,191.255 149.901,191.962 149.857 C 192.669 149.812,192.032 149.776,190.546 149.776 C 189.060 149.777,188.482 149.813,189.260 149.857 M227.181 149.852 C 227.521 149.903,228.078 149.903,228.419 149.852 C 228.759 149.800,228.481 149.758,227.800 149.758 C 227.119 149.758,226.840 149.800,227.181 149.852 M273.884 149.853 C 274.283 149.903,274.992 149.903,275.459 149.855 C 275.926 149.806,275.599 149.765,274.733 149.764 C 273.866 149.763,273.484 149.803,273.884 149.853 " stroke="none" fill="#7c7c7c" fill-rule="evenodd"></path><path id="path4" d="M232.182 87.451 C 232.182 94.631,232.210 97.601,232.245 94.051 C 232.280 90.500,232.280 84.625,232.245 80.995 C 232.210 77.365,232.182 80.270,232.182 87.451 M274.889 78.841 C 274.865 81.162,274.921 83.062,275.014 83.062 C 275.107 83.062,275.156 81.821,275.124 80.304 C 275.013 75.118,274.933 74.620,274.889 78.841 M170.945 79.685 C 170.945 82.223,170.978 83.261,171.018 81.992 C 171.058 80.723,171.058 78.647,171.018 77.378 C 170.978 76.109,170.945 77.147,170.945 79.685 M96.227 120.540 C 96.227 137.873,96.253 144.930,96.286 136.223 C 96.318 127.516,96.318 113.335,96.286 104.709 C 96.253 96.084,96.226 103.208,96.227 120.540 M258.357 128.023 C 259.378 128.065,261.050 128.065,262.071 128.023 C 263.092 127.982,262.257 127.948,260.214 127.948 C 258.171 127.948,257.335 127.982,258.357 128.023 M294.316 129.432 C 294.240 129.555,294.386 129.657,294.641 129.657 C 294.896 129.657,295.104 129.555,295.104 129.432 C 295.104 129.308,294.958 129.207,294.780 129.207 C 294.601 129.207,294.393 129.308,294.316 129.432 M227.296 130.041 C 227.576 130.095,227.981 130.093,228.196 130.036 C 228.411 129.980,228.182 129.936,227.687 129.939 C 227.192 129.941,227.016 129.987,227.296 130.041 M255.209 132.526 C 255.320 136.593,255.403 136.992,255.445 133.652 C 255.468 131.826,255.411 130.332,255.318 130.332 C 255.225 130.331,255.176 131.319,255.209 132.526 M202.138 137.224 C 203.463 137.392,205.290 137.409,205.290 137.254 C 205.290 137.161,204.454 137.100,203.433 137.119 C 202.411 137.137,201.829 137.185,202.138 137.224 M213.540 137.254 C 213.482 137.347,214.008 137.394,214.709 137.359 C 216.907 137.249,217.172 137.154,215.376 137.119 C 214.424 137.100,213.598 137.161,213.540 137.254 M240.574 137.250 C 241.100 137.297,241.961 137.297,242.487 137.250 C 243.014 137.202,242.583 137.164,241.531 137.164 C 240.478 137.164,240.048 137.202,240.574 137.250 M252.167 137.249 C 252.631 137.298,253.391 137.298,253.855 137.249 C 254.319 137.200,253.939 137.161,253.011 137.161 C 252.082 137.161,251.702 137.200,252.167 137.249 M293.978 142.983 C 293.917 146.165,293.944 148.690,294.039 148.595 C 294.134 148.500,294.184 145.896,294.151 142.810 L 294.091 137.198 293.978 142.983 " stroke="none" fill="#747474" fill-rule="evenodd"></path></g></svg>